<svg width="150" height="10" viewBox="0 0 1000 66.67" xmlns="http://www.w3.org/2000/svg">
  <path fill="#000000" d="M961.8,33.07H572.4c-0.7,0-1.5-0.2-2.1-0.6l-13.3-7.9c-2.9-1.7-6.5,0.6-6.1,4l0,0c0.3,2.4-1.6,4.5-4,4.5h-32.2  
    c-1.5,0-2.9-0.8-3.6-2.2c-2.1-4.1-6.3-7-11.2-7c-4.9,0-9.2,2.9-11.2,7c-0.7,1.3-2.1,2.2-3.6,2.2h-32.2c-2.4,0-4.3-2.1-4-4.5l0,0  
    c0.4-3.3-3.2-5.7-6.1-4l-13.3,7.9c-0.6,0.4-1.3,0.6-2.1,0.6H38.2c-1.9,0-3.4,1.5-3.4,3.4c0,1.9,1.5,3.4,3.4,3.4h389.4  
    c0.7,0,1.5,0.2,2.1,0.6l13.3,7.9c2.9,1.7,6.5-0.6,6.1-4v0c-0.3-2.4,1.6-4.5,4-4.5h32.2c1.5,0,2.9,0.8,3.6,2.2c2.1,4.1,6.3,7,11.2,7  
    c4.9,0,9.2-2.9,11.2-7c0.7-1.3,2.1-2.2,3.6-2.2h32.2c2.4,0,4.3,2.1,4,4.5l0,0c-0.4,3.3,3.2,5.7,6.1,4l13.3-7.9  
    c0.6-0.4,1.3-0.6,2.1-0.6h389.4c1.9,0,3.4-1.5,3.4-3.4C965.3,34.57,963.8,33.07,961.8,33.07z"/>
</svg>