<?xml version="1.0" encoding="UTF-8"?>
<svg version="1.1" xmlns="http://www.w3.org/2000/svg" width="1024" height="1024">
<path d="M0 0 C0.33 0.66 0.66 1.32 1 2 C1.85031799 1.95860397 2.70063599 1.91720795 3.57672119 1.8745575 C11.63584168 1.49424224 19.69440912 1.17924119 27.75885391 0.93529034 C31.90414852 0.80764754 36.04546501 0.65590538 40.1875 0.4465332 C44.19408963 0.24493669 48.19816603 0.10998687 52.2087326 0.01877785 C53.72922092 -0.02706902 55.24921486 -0.09590411 56.76752472 -0.18929482 C63.37383036 -0.58289708 69.32249273 -0.84319527 74.55285645 3.79580688 C77.67598354 6.97097082 80.35944004 10.42224229 83 14 C84.30881651 15.62796824 85.62042313 17.25370738 86.9375 18.875 C87.55625 19.66777344 88.175 20.46054687 88.8125 21.27734375 C91.59801628 24.74431669 94.51240832 28.08814881 97.4375 31.4375 C101.95461641 36.61344306 106.36752001 41.85200177 110.69140625 47.19140625 C113.91631322 51.11477023 117.23575147 54.95410437 120.55224609 58.80004883 C123.65452418 62.40584061 126.69473037 66.05212758 129.6875 69.75 C133.24267904 74.13151795 136.96769537 78.31710681 140.765625 82.48828125 C143.78690037 85.88457506 146.62575933 89.4159298 149.484375 92.94921875 C152.42924654 96.52056141 155.45708127 100.0122255 158.5 103.5 C162.32318393 107.88210961 166.09154344 112.29059652 169.75 116.8125 C173.33464998 121.23904942 177.07969421 125.48423435 180.9140625 129.6953125 C183.67366097 132.74430706 186.34071334 135.86340547 189 139 C192.77485525 136.17219324 195.68279451 133.18028453 198.625 129.5 C199.38039063 128.5615625 200.13578125 127.623125 200.9140625 126.65625 C202.19883755 125.02020686 203.45171043 123.35775768 204.6484375 121.65625 C205.09445312 121.1096875 205.54046875 120.563125 206 120 C206.66 120 207.32 120 208 120 C208.22558594 119.45472656 208.45117188 118.90945313 208.68359375 118.34765625 C210.3914321 115.30192673 212.67054446 112.94679215 215.0625 110.4375 C218.7092628 106.54216218 222.21505303 102.59789838 225.5625 98.4375 C228.59357567 94.67161811 231.72581577 91.05670244 235 87.5 C239.11378909 83.0301488 242.97087297 78.40955107 246.78515625 73.68359375 C249.66480887 70.19449084 252.70693876 66.87003079 255.75390625 63.52734375 C258.06187598 60.93037607 260.25555863 58.26595987 262.4375 55.5625 C265.51336588 51.75912497 268.68753166 48.09917348 272 44.5 C276.01529746 40.13313271 279.79137958 35.63188173 283.51953125 31.01953125 C291.63334417 21.14240151 299.95705056 11.04294944 309 2 C311.29983022 1.87579266 313.60347386 1.82195547 315.90649414 1.79467773 C316.62840439 1.78477814 317.35031464 1.77487854 318.09410095 1.76467896 C320.49108551 1.73297701 322.88808992 1.70827241 325.28515625 1.68359375 C326.94283069 1.66303171 328.6004998 1.64203545 330.25816345 1.62062073 C334.62948295 1.5653225 339.00085037 1.51594756 343.37225342 1.46777344 C347.82959274 1.41761484 352.28686213 1.3618994 356.74414062 1.30664062 C365.4960347 1.19896432 374.24798712 1.09754055 383 1 C383.9898463 4.30413296 384.12804824 7.30006149 384.13371277 10.74212646 C384.13797775 11.91404541 384.14224274 13.08596436 384.14663696 14.293396 C384.14618378 15.57554993 384.14573059 16.85770386 384.14526367 18.17871094 C384.14825661 19.54561454 384.15165945 20.9125173 384.15544128 22.27941895 C384.16427349 25.99034921 384.16661912 29.7012564 384.16725707 33.41219616 C384.16796821 35.73262712 384.17010379 38.05305224 384.17275429 40.37348175 C384.18200634 48.47457755 384.1860895 56.5756569 384.18530273 64.67675781 C384.18470253 72.21797431 384.19524346 79.75911915 384.2110464 87.30031753 C384.22414308 93.78200165 384.22948571 100.26366241 384.22884732 106.74535966 C384.22859289 110.61326253 384.23141377 114.48110175 384.24202538 118.34899139 C384.25174178 121.99007076 384.25176138 125.63102612 384.24450874 129.27210999 C384.24297269 131.23624271 384.25128558 133.20037552 384.25994873 135.16448975 C384.23032104 143.52198755 383.37750616 150.41232864 379.890625 158.08984375 C379.47296875 159.02175537 379.0553125 159.95366699 378.625 160.91381836 C377.944375 162.41054077 377.944375 162.41054077 377.25 163.9375 C371.17754579 177.5117613 365.36746168 191.18860316 359.5864563 204.8888092 C357.89529071 208.89339308 356.19240743 212.89267992 354.47637939 216.88667297 C353.68447534 218.72983279 352.89494046 220.57400994 352.10546875 222.41821289 C351.14086905 224.67048319 350.17231266 226.92106432 349.19921875 229.16967773 C348.77511719 230.16298096 348.35101562 231.15628418 347.9140625 232.1796875 C347.5423291 233.04319824 347.1705957 233.90670898 346.78759766 234.79638672 C345.83171945 237.08080868 345.83171945 237.08080868 346 240 C345.34 240 344.68 240 344 240 C343.82327255 240.55433716 343.6465451 241.10867432 343.46446228 241.67980957 C341.74078237 246.9817133 339.78658681 252.10696616 337.56640625 257.21875 C337.24719711 257.96153198 336.92798798 258.70431396 336.59910583 259.46960449 C335.59032124 261.81455935 334.57645333 264.15727622 333.5625 266.5 C332.88704548 268.06887083 332.21191289 269.6378803 331.53710938 271.20703125 C326.28287624 283.40741572 326.28287624 283.40741572 323.52734375 289.40625 C321.80442968 292.80935788 321.80442968 292.80935788 322 296 C321.34 296 320.68 296 320 296 C319.34 298.31 318.68 300.62 318 303 C317.01 302.67 316.02 302.34 315 302 C315.33 301.34 315.66 300.68 316 300 C316.08091618 298.40308905 316.09731153 296.80271601 316.08229065 295.2038269 C316.07173141 293.68515518 316.07173141 293.68515518 316.06095886 292.13580322 C316.04153984 290.46345612 316.04153984 290.46345612 316.02172852 288.75732422 C316.01212097 287.5866037 316.00251343 286.41588318 315.99261475 285.20968628 C315.96523761 281.99498272 315.93334166 278.7803615 315.89946485 275.56572104 C315.86513754 272.20783749 315.83654783 268.8499053 315.80735779 265.49197388 C315.75118911 259.13129032 315.68983663 252.77066767 315.62663645 246.41005051 C315.5549449 239.16954892 315.48900983 231.92899852 315.42356598 224.68843818 C315.28879714 209.79222874 315.14677421 194.89609634 315 180 C314.67 180 314.34 180 314 180 C314 164.49 314 148.98 314 133 C314.33 133 314.66 133 315 133 C315 122.77 315 112.54 315 102 C309.18233644 108.39942991 303.61771566 114.62216249 298.21484375 121.31640625 C295.33401493 124.80693429 292.29065597 128.13274068 289.2421875 131.4765625 C286.95484096 134.05082358 284.78451729 136.69289489 282.625 139.375 C278.94428153 143.92780507 275.07351352 148.23417411 271.08862305 152.5168457 C267.28614986 156.62760957 263.75736701 160.92266523 260.24609375 165.28515625 C257.11832821 169.06567286 253.78726117 172.64480875 250.46484375 176.25390625 C248.07292703 178.91875166 245.80745116 181.64831825 243.5625 184.4375 C240.34056683 188.43224254 236.99342389 192.24552109 233.5 196 C229.19003562 200.6324838 225.14938832 205.42122233 221.1796875 210.3515625 C219.02242601 212.97275119 216.78689 215.49154281 214.5 218 C211.40444804 221.39598682 208.44848793 224.86171531 205.5625 228.4375 C201.54861716 233.40706923 197.31595347 238.10922906 192.96875 242.78515625 C190.97328212 244.83679121 190.97328212 244.83679121 190 247 C185.99353841 245.6645128 184.44413556 243.00625829 182 239.75 C181.02261846 238.48039459 180.04340008 237.21220145 179.0625 235.9453125 C178.55976563 235.2946582 178.05703125 234.64400391 177.5390625 233.97363281 C175.0761018 230.81522953 172.5563238 227.70813377 170 224.625 C169.54367187 224.06006836 169.08734375 223.49513672 168.6171875 222.91308594 C167.47828584 221.54998433 166.24545107 220.2664891 165 219 C164.01 219 163.02 219 162 219 C162 217.68 162 216.36 162 215 C160.45926058 212.90793216 158.92341029 211.04178872 157.1875 209.125 C156.17482239 207.97072969 155.16447843 206.8144086 154.15625 205.65625 C153.63417969 205.058125 153.11210937 204.46 152.57421875 203.84375 C150.0150201 200.8463759 147.60280769 197.73859384 145.1875 194.625 C139.01517743 185.28213232 139.01517743 185.28213232 130 180 C130 178.68 130 177.36 130 176 C128.45918872 173.90783459 126.92342488 172.04191354 125.1875 170.125 C124.16702463 168.96160184 123.14886295 167.79617089 122.1328125 166.62890625 C121.60977539 166.02965332 121.08673828 165.43040039 120.54785156 164.81298828 C118.12175412 161.97131642 115.84438914 159.02025782 113.5625 156.0625 C109.31171058 150.58477297 104.88429227 145.29164817 100.34887695 140.0480957 C94.43697655 133.21080407 88.74614433 126.20263516 83.125 119.125 C78.21981806 112.96869878 73.10668346 106.98908833 68 101 C68.33 101.99 68.66 102.98 69 104 C68.01 104 67.02 104 66 104 C66.16238096 105.09086788 66.32476192 106.18173576 66.49206352 107.30566025 C67.14599653 112.57609713 67.13862162 117.80495215 67.12698364 123.10943604 C67.12932363 124.75704379 67.12932363 124.75704379 67.13171089 126.43793654 C67.13568997 130.10740115 67.13254325 133.77682417 67.12939453 137.44628906 C67.13074991 140.08134075 67.13249451 142.71638959 67.13470459 145.35144043 C67.13914361 151.75791982 67.1381943 158.16438748 67.13529195 164.57086733 C67.13303137 169.77659309 67.13272823 174.98231557 67.13381577 180.18804169 C67.133969 180.92959969 67.13412223 181.67115769 67.13428011 182.43518715 C67.13459984 183.94170795 67.13492405 185.44822875 67.1352527 186.95474955 C67.13810181 201.06903397 67.13482897 215.18331188 67.12945233 229.29759523 C67.12498111 241.41031413 67.12576395 253.52302346 67.13037109 265.63574219 C67.13572052 279.7065553 67.13783107 293.77736273 67.13475883 307.84817672 C67.13444028 309.34785827 67.13412591 310.84753982 67.13381577 312.34722137 C67.13358435 313.45400958 67.13358435 313.45400958 67.13334826 314.58315714 C67.13248449 319.78513766 67.13394291 324.98711458 67.13629532 330.18909454 C67.13938973 337.18551293 67.13719238 344.18191287 67.13140106 351.17832947 C67.1300754 353.75029724 67.13046431 356.32226653 67.13266373 358.8942337 C67.13538267 362.39567616 67.13198491 365.89705985 67.12698364 369.39849854 C67.13032973 370.93699726 67.13032973 370.93699726 67.13374341 372.50657678 C67.13113566 373.44315739 67.12852791 374.37973801 67.12584114 375.34469986 C67.12567879 376.15296479 67.12551644 376.96122971 67.12534916 377.79398751 C67.00094295 379.98340504 66.60553967 381.89713404 66 384 C57.44649477 384.04631606 48.89304184 384.08186543 40.33944225 384.10362434 C36.36777 384.11406689 32.39618346 384.12823463 28.42456055 384.15087891 C24.59257984 384.17259058 20.76068165 384.18456508 16.92864418 384.18975449 C15.46578993 384.19345326 14.00294025 384.20067596 12.54012108 384.21146011 C10.49303764 384.22595298 8.44629631 384.2279789 6.39916992 384.22705078 C4.65043831 384.23371262 4.65043831 384.23371262 2.86637878 384.24050903 C-0 384 -0 384 -3 382 C-2.01 382 -1.02 382 0 382 C-0.00515373 381.32134007 -0.01030746 380.64268013 -0.01561737 379.94345474 C-1.45635758 189.79698224 -1.45635758 189.79698224 0 0 Z M315 145 C316 148 316 148 316 148 Z M315 149 C315 156.26 315 163.52 315 171 C315.33 171 315.66 171 316 171 C316 163.74 316 156.48 316 149 C315.67 149 315.34 149 315 149 Z " fill="#0D2643" transform="translate(198,320)"/>
<path d="M0 0 C1.1702623 0.00222061 2.3405246 0.00444122 3.54624939 0.00672913 C4.51207191 0.00651009 4.51207191 0.00651009 5.49740601 0.00628662 C7.63473327 0.00698567 9.77197438 0.01477761 11.9092865 0.02259827 C13.3875931 0.02446248 14.86590032 0.02588637 16.34420776 0.02688599 C20.24211827 0.03071093 24.13999174 0.040541 28.03788757 0.05158997 C32.01259358 0.0618046 35.98730554 0.06638372 39.96202087 0.07142639 C47.76607425 0.0821633 55.57009707 0.09923942 63.37413025 0.12025452 C68.69613276 11.34337803 73.71692374 22.67859659 78.64787292 34.07841492 C80.41747231 38.16936162 82.19180197 42.25825149 83.96580505 46.34729004 C84.8573914 48.40249877 85.7487504 50.45780614 86.63987732 52.51321411 C90.24437519 60.82642786 93.86489314 69.1325041 97.49913025 77.43275452 C97.90468643 78.35947464 97.90468643 78.35947464 98.31843567 79.30491638 C101.80753948 87.27710913 105.30748884 95.2445049 108.81163025 103.21009827 C116.4570687 120.59292917 124.06865645 137.98633136 131.52256775 155.45228577 C134.32354675 162.01288321 137.15361107 168.56069257 139.99195862 175.10517883 C140.80429244 176.97833432 141.61599265 178.85176335 142.42759705 180.72523499 C144.96701814 186.58478226 147.5125672 192.44154911 150.07244873 198.29219055 C151.26380515 201.01617268 152.45229365 203.74140162 153.64051819 206.4667511 C154.20424468 207.75754151 154.76936562 209.04772401 155.33601379 210.3372345 C160.27500217 221.57779305 160.27500217 221.57779305 162.11631775 227.41322327 C162.91032065 231.1813928 162.91032065 231.1813928 165.37413025 232.12025452 C166.18871693 233.9747391 166.91690684 235.86740956 167.604599 237.77259827 C169.43997819 242.70581176 171.37908815 247.54835619 173.4874115 252.37416077 C174.01270447 253.57750061 174.53799744 254.78084045 175.07920837 256.02064514 C175.89147421 257.87119003 176.70386287 259.72168786 177.52183533 261.56971741 C178.32931735 263.39752642 179.12726033 265.22954025 179.9249115 267.06166077 C180.39582214 268.13101868 180.86673279 269.20037659 181.35191345 270.30213928 C182.37413025 273.12025452 182.37413025 273.12025452 182.37413025 277.12025452 C160.92413025 277.12025452 139.47413025 277.12025452 117.37413025 277.12025452 C108.37413025 256.12025452 108.37413025 256.12025452 107.37413025 252.12025452 C106.05413025 251.79025452 104.73413025 251.46025452 103.37413025 251.12025452 C104.03413025 250.46025452 104.69413025 249.80025452 105.37413025 249.12025452 C104.77229276 247.09980009 104.10106929 245.09914412 103.37413025 243.12025452 C102.71413025 242.79025452 102.05413025 242.46025452 101.37413025 242.12025452 C100.59288025 240.12416077 100.59288025 240.12416077 99.87413025 237.68275452 C98.80096513 234.02643416 98.80096513 234.02643416 96.37413025 231.12025452 C94.68663025 229.18275452 94.68663025 229.18275452 93.37413025 227.12025452 C93.70413025 226.13025452 94.03413025 225.14025452 94.37413025 224.12025452 C94.04413025 223.46025452 93.71413025 222.80025452 93.37413025 222.12025452 C51.13413025 221.79025452 8.89413025 221.46025452 -34.62586975 221.12025452 C-35.61586975 224.09025452 -36.60586975 227.06025452 -37.62586975 230.12025452 C-38.61806888 232.53214885 -39.64530771 234.92994104 -40.707901 237.31166077 C-40.99840836 237.96627792 -41.28891571 238.62089508 -41.58822632 239.29534912 C-42.21088546 240.69722013 -42.83539482 242.0982706 -43.46162415 243.49855042 C-44.80626441 246.50544265 -46.14155464 249.51646062 -47.47767639 252.52714539 C-48.17006169 254.08691109 -48.86293626 255.64645969 -49.55628967 257.20579529 C-52.98354395 264.91460271 -56.37244637 272.63994553 -59.75086975 280.37025452 C-60.03812927 281.02718292 -60.32538879 281.68411133 -60.62135315 282.36094666 C-66.17841492 295.07078753 -71.6978067 307.79685681 -77.2049408 320.52839661 C-79.11305915 324.93850535 -81.02664389 329.34621759 -82.942276 333.75306702 C-84.04543602 336.29200127 -85.14825011 338.83108555 -86.25086975 341.37025452 C-86.51832001 341.98599335 -86.78577026 342.60173218 -87.06132507 343.23612976 C-91.54506933 353.56455132 -95.94864098 363.92480896 -100.28846741 374.31459045 C-100.71434143 375.32940491 -101.14021545 376.34421936 -101.57899475 377.38978577 C-101.95185608 378.28286438 -102.32471741 379.17594299 -102.70887756 380.09608459 C-103.62586975 382.12025452 -103.62586975 382.12025452 -104.62586975 383.12025452 C-106.60930175 383.22481272 -108.59648217 383.25881056 -110.58265686 383.26551819 C-111.85745407 383.27189804 -113.13225128 383.27827789 -114.44567871 383.28485107 C-115.84818993 383.28637963 -117.25070164 383.28749366 -118.6532135 383.28822327 C-120.08188918 383.29143416 -121.51056453 383.29479811 -122.9392395 383.29830933 C-125.9378994 383.3043069 -128.93653045 383.30614859 -131.93519592 383.30555725 C-135.78344924 383.3054556 -139.63151816 383.31910749 -143.47972775 383.33632946 C-146.43162897 383.34743158 -149.38348538 383.34947701 -152.33540535 383.34894753 C-153.75442198 383.35013036 -155.17343967 383.35456906 -156.59243584 383.36227989 C-158.57482924 383.37204306 -160.55727641 383.36794704 -162.53968811 383.36317444 C-164.23393166 383.36531197 -164.23393166 383.36531197 -165.96240234 383.36749268 C-168.62586975 383.12025452 -168.62586975 383.12025452 -170.62586975 381.12025452 C-169.96586975 381.12025452 -169.30586975 381.12025452 -168.62586975 381.12025452 C-168.45349289 380.57339493 -168.28111603 380.02653534 -168.10351562 379.46310425 C-166.30776061 373.90571465 -164.19808605 368.58681412 -161.817276 363.25697327 C-161.27349808 362.02571968 -161.27349808 362.02571968 -160.71873474 360.76959229 C-159.94567287 359.02005776 -159.1708516 357.27129974 -158.39439392 355.52326965 C-156.34072139 350.89916761 -154.30048978 346.26913601 -152.25868225 341.63978577 C-151.8540123 340.72318176 -151.44934235 339.80657776 -151.03240967 338.86219788 C-147.82637008 331.59401182 -144.6763663 324.30383689 -141.56336975 316.99525452 C-135.11901095 301.88496452 -128.54293381 286.83275877 -121.96890259 271.77854919 C-119.35778151 265.7988284 -116.75051631 259.81743778 -114.145401 253.83509827 C-107.74545 239.13958998 -101.34266162 224.44572835 -94.8731842 209.78065491 C-92.05284875 203.38092813 -89.25087236 196.97336424 -86.457901 190.56166077 C-86.08700348 189.71022491 -85.71610596 188.85878906 -85.33396912 187.98155212 C-83.49257819 183.75356393 -81.65231175 179.52508965 -79.81336975 175.29603577 C-79.12197197 173.70749042 -78.43056581 172.11894871 -77.739151 170.53041077 C-77.40315887 169.75690277 -77.06716675 168.98339478 -76.72099304 168.18644714 C-74.95095521 164.12113597 -73.15667756 160.06857463 -71.32655334 156.02992249 C-70.95451279 155.20568283 -70.58247223 154.38144318 -70.19915771 153.53222656 C-69.48671751 151.95724618 -68.76965889 150.38434431 -68.04733276 148.81387329 C-66.14601965 144.63599603 -66.14601965 144.63599603 -65.62586975 140.12025452 C-64.96586975 140.12025452 -64.30586975 140.12025452 -63.62586975 140.12025452 C-63.45426331 139.57135559 -63.28265686 139.02245667 -63.10585022 138.45692444 C-61.32696974 132.92661932 -59.19421657 127.69833914 -56.75086975 122.43275452 C-52.89704499 113.99739236 -49.17310574 105.51107888 -45.50086975 96.99525452 C-40.76139406 86.01353824 -35.96470109 75.05854454 -31.12586975 64.12025452 C-26.25018728 53.09669953 -21.41121615 42.05833904 -16.62586975 30.99525452 C-16.35560974 30.37067352 -16.08534973 29.74609253 -15.80690002 29.10258484 C-13.67147506 24.16723442 -11.53777726 19.23113803 -9.40516663 14.29457092 C-8.39767551 11.96463666 -7.38733641 9.6359649 -6.37586975 7.30775452 C-5.8550885 6.1050592 -5.33430725 4.90236389 -4.79774475 3.66322327 C-3.17666433 0.14547874 -3.17666433 0.14547874 0 0 Z M29.37413025 71.12025452 C30.37413025 73.12025452 30.37413025 73.12025452 30.37413025 73.12025452 Z M28.37413025 73.12025452 C27.99212463 74.10191589 27.99212463 74.10191589 27.60240173 75.10340881 C21.83587371 89.90056133 15.97301536 104.65560797 9.99913025 119.37025452 C9.68578735 120.14240295 9.37244446 120.91455139 9.04960632 121.71009827 C5.86872123 129.54649959 2.67940891 137.37940344 -0.52528381 145.20610046 C-1.7494085 148.19656238 -2.97119325 151.18797773 -4.19282532 154.17945862 C-5.04787829 156.2698812 -5.90686617 158.35865761 -6.76600647 160.44740295 C-7.28068522 161.70676417 -7.79518174 162.96619988 -8.3094635 164.22572327 C-8.75862122 165.32037903 -9.20777893 166.41503479 -9.67054749 167.54286194 C-10.7417193 169.97468451 -10.7417193 169.97468451 -10.62586975 172.12025452 C16.76413025 172.12025452 44.15413025 172.12025452 72.37413025 172.12025452 C70.11823383 165.21222929 70.11823383 165.21222929 67.50694275 158.50697327 C67.18153503 157.74078674 66.85612732 156.97460022 66.52085876 156.18519592 C66.01510315 155.00836243 66.01510315 155.00836243 65.49913025 153.80775452 C64.78149782 152.12163512 64.06404923 150.43543746 63.3467865 148.74916077 C63.00405701 147.94623596 62.66132751 147.14331116 62.30821228 146.3160553 C61.16683298 143.63294881 60.04954029 140.94028058 58.93663025 138.24525452 C52.12737983 117.41713144 52.12737983 117.41713144 41.37413025 99.12025452 C40.84357378 97.67275807 40.3488129 96.21202392 39.87413025 94.74525452 C39.61631775 93.95377014 39.35850525 93.16228577 39.09288025 92.34681702 C38.85569275 91.61205139 38.61850525 90.87728577 38.37413025 90.12025452 C37.87913025 88.63525452 37.87913025 88.63525452 37.37413025 87.12025452 C36.71413025 86.79025452 36.05413025 86.46025452 35.37413025 86.12025452 C35.03138619 84.45549766 34.70048722 82.78830128 34.37413025 81.12025452 C33.08835438 77.39708007 33.08835438 77.39708007 31.37413025 74.12025452 C30.38413025 73.79025452 29.39413025 73.46025452 28.37413025 73.12025452 Z " fill="#0D2743" transform="translate(682.6258697509766,320.87974548339844)"/>
<path d="M0 0 C-0.58501067 5.43452829 -1.52930205 10.59618972 -2.95849609 15.87670898 C-3.15555145 16.62156555 -3.35260681 17.36642212 -3.55563354 18.1338501 C-4.20657722 20.58928874 -4.86495586 23.04266685 -5.5234375 25.49609375 C-5.98934763 27.24720097 -6.45480216 28.99842947 -6.91983032 30.74977112 C-8.15050428 35.37947848 -9.38752722 40.00746658 -10.62585449 44.63513184 C-11.84173602 49.1834441 -13.05139484 53.73340951 -14.26171875 58.28320312 C-21.74956894 86.40986513 -21.74956894 86.40986513 -25.38490105 99.79643536 C-26.41999922 103.60846811 -27.45181439 107.42138682 -28.48366165 111.23430061 C-29.21206721 113.91922614 -29.9459735 116.60260857 -30.68002319 119.28599548 C-31.12110595 120.91462846 -31.56192676 122.54333241 -32.00244141 124.17211914 C-32.20611958 124.90989405 -32.40979774 125.64766895 -32.61964798 126.40780067 C-33.52275173 129.7687832 -34 132.48698305 -34 136 C-34.66 136 -35.32 136 -36 136 C-36.103125 136.928125 -36.20625 137.85625 -36.3125 138.8125 C-37.03762322 143.99499832 -38.55669005 148.98018616 -40 154 C-59.41043084 152.29478458 -59.41043084 152.29478458 -62 151 C-61.54780216 148.69113105 -61.08807772 146.38405965 -60.62109375 144.078125 C-60.20743383 142.02803685 -59.80375908 139.9759083 -59.41015625 137.921875 C-58.05404087 131.14932244 -56.33332843 124.61348586 -54.296875 118.01953125 C-51.08200836 107.44160095 -48.13563314 96.80073431 -45.31054688 86.11254883 C-44.76256856 84.05053282 -44.20769147 81.99033973 -43.64648438 79.93188477 C-42.82225803 76.90758987 -42.01826322 73.8785649 -41.21875 70.84765625 C-40.9647644 69.93000992 -40.71077881 69.01236359 -40.44909668 68.06690979 C-39.11289121 62.99587223 -39.11289121 62.99587223 -39.86132812 57.88452148 C-40.23708984 57.26262939 -40.61285156 56.6407373 -41 56 C-39.68 56.33 -38.36 56.66 -37 57 C-35.73504476 50.79633654 -34.55082007 44.58528886 -33.46484375 38.34765625 C-32.84670201 35.22578074 -31.77123788 32.3681808 -30.6875 29.375 C-28.90782462 24.07086945 -27.68033599 18.65558218 -26.44604492 13.20458984 C-25.43521945 8.75408583 -24.29255674 4.37745884 -23 0 C-20.10450497 -0.1954384 -17.20891002 -0.38161395 -14.3125 -0.5625 C-13.49587891 -0.61857422 -12.67925781 -0.67464844 -11.83789062 -0.73242188 C-7.70485877 -0.98341571 -4.04175718 -1.11127743 0 0 Z " fill="#102742" transform="translate(745,577)"/>
<path d="M0 0 C5.46020246 3.79387364 10.12457506 8.00473722 14.765625 12.7578125 C18.91516409 16.92186047 23.34612335 20.72513675 28 24.3125 C28.66 24.869375 29.32 25.42625 30 26 C30 26.66 30 27.32 30 28 C30.58644287 28.26425781 31.17288574 28.52851562 31.77709961 28.80078125 C34.08242328 30.04446603 35.6787942 31.38027236 37.56640625 33.1875 C38.21673828 33.80367187 38.86707031 34.41984375 39.53710938 35.0546875 C40.53967773 36.01761719 40.53967773 36.01761719 41.5625 37 C42.89530858 38.27274913 44.22987632 39.54365927 45.56640625 40.8125 C46.15365479 41.37582031 46.74090332 41.93914063 47.34594727 42.51953125 C49.13992736 44.195549 49.13992736 44.195549 52 46 C52 46.66 52 47.32 52 48 C53.32 48.66 54.64 49.32 56 50 C54.387672 54.03082 51.53765404 56.75944137 48.5 59.75 C48.00113281 60.25660156 47.50226562 60.76320313 46.98828125 61.28515625 C43.25341139 65 43.25341139 65 41 65 C40.62875 65.928125 40.62875 65.928125 40.25 66.875 C38.79371361 69.35068687 37.62187494 69.95125002 35 71 C35 71.66 35 72.32 35 73 C33.625 74.625 33.625 74.625 32 76 C31.34 76 30.68 76 30 76 C30 76.66 30 77.32 30 78 C28.54882812 79.42993164 28.54882812 79.42993164 26.53125 81.09765625 C21.95144237 84.99190626 17.72332288 89.16334082 13.5 93.4375 C12.77296875 94.16904297 12.0459375 94.90058594 11.296875 95.65429688 C9.52890501 97.43389824 7.76333622 99.21580918 6 101 C2.1789065 99.23116268 -0.19285078 96.97905777 -3.125 93.9375 C-6.24105765 90.53546517 -6.24105765 90.53546517 -10 88 C-8.43930994 84.16921531 -5.93185886 81.85856238 -3 79 C-2.34 78.01 -1.68 77.02 -1 76 C-0.00706179 75.0844715 1.01889219 74.20410752 2.06640625 73.3515625 C6.56905353 69.57153349 10.75528196 65.50346203 14.9375 61.375 C15.71673828 60.62476563 16.49597656 59.87453125 17.29882812 59.1015625 C18.03423828 58.37453125 18.76964844 57.6475 19.52734375 56.8984375 C20.19499756 56.24536621 20.86265137 55.59229492 21.55053711 54.91943359 C23.40175182 52.86885798 23.40175182 52.86885798 23 49 C21.33779419 47.99260254 19.66979326 46.99477045 18 46 C16.86003342 44.78255997 15.75908705 43.5280396 14.6875 42.25 C10.57233453 37.37110295 5.98755648 33.10119592 0.76171875 29.42578125 C0.18035156 28.95527344 -0.40101563 28.48476563 -1 28 C-1 27.34 -1 26.68 -1 26 C-1.56203125 25.75507812 -2.1240625 25.51015625 -2.703125 25.2578125 C-5.41865854 23.77073461 -7.46391438 21.95937218 -9.75 19.875 C-10.54921875 19.15054688 -11.3484375 18.42609375 -12.171875 17.6796875 C-12.77515625 17.12539063 -13.3784375 16.57109375 -14 16 C-9.84542161 10.08287321 -5.22741666 4.98860067 0 0 Z " fill="#112741" transform="translate(762,602)"/>
<path d="M0 0 C0.66 0 1.32 0 2 0 C3.55078125 1.609375 3.55078125 1.609375 5.3125 3.75 C7.98709149 6.892645 10.57249203 9.64970882 14 12 C14.66 12 15.32 12 16 12 C14.60052758 16.67052843 11.95819615 19.26343633 8.375 22.375 C7.56204468 23.09888916 7.56204468 23.09888916 6.73266602 23.83740234 C5.16189794 25.23286252 3.58152136 26.61675737 2 28 C1.27941406 28.64453125 0.55882812 29.2890625 -0.18359375 29.953125 C-4.82628202 34.08424887 -9.64231079 37.99231568 -14.484375 41.88671875 C-16.79940304 43.83148609 -18.97586925 45.75359321 -21 48 C-21 48.66 -21 49.32 -21 50 C-20.01 50.495 -20.01 50.495 -19 51 C-19 51.66 -19 52.32 -19 53 C-18.40993164 53.2678833 -17.81986328 53.5357666 -17.21191406 53.81176758 C-14.97815542 55.01173483 -13.43726575 56.26612013 -11.609375 58.01171875 C-10.98619385 58.60138428 -10.3630127 59.1910498 -9.72094727 59.79858398 C-9.07053467 60.42192627 -8.42012207 61.04526855 -7.75 61.6875 C-6.40056837 62.96441809 -5.05031664 64.2404701 -3.69921875 65.515625 C-3.05645996 66.12341797 -2.41370117 66.73121094 -1.75146484 67.35742188 C2.13584195 71.00305892 6.178665 74.46591194 10.25390625 77.8984375 C11.36572266 78.84589844 11.36572266 78.84589844 12.5 79.8125 C13.1703125 80.37582031 13.840625 80.93914062 14.53125 81.51953125 C16 83 16 83 16 85 C15.34 85 14.68 85 14 85 C14 85.66 14 86.32 14 87 C13.34 87 12.68 87 12 87 C11.63261719 87.85851562 11.63261719 87.85851562 11.2578125 88.734375 C9.78889901 91.38024402 8.04651756 93.14853139 5.875 95.25 C5.15054688 95.95640625 4.42609375 96.6628125 3.6796875 97.390625 C2.84824219 98.18726563 2.84824219 98.18726563 2 99 C1.01 98.67 0.02 98.34 -1 98 C-1 97.34 -1 96.68 -1 96 C-1.56847656 95.7628125 -2.13695312 95.525625 -2.72265625 95.28125 C-6.35872372 93.23557225 -8.85709006 90.12179569 -11.68359375 87.09375 C-13.86754258 84.86924881 -13.86754258 84.86924881 -16.66015625 83.96875 C-19.60725607 82.74858179 -19.62172383 81.78146284 -21 79 C-22.56617995 77.23398489 -22.56617995 77.23398489 -24.4140625 75.57421875 C-25.09339844 74.94193359 -25.77273438 74.30964844 -26.47265625 73.65820312 C-27.53806641 72.68270508 -27.53806641 72.68270508 -28.625 71.6875 C-29.31207031 71.04876953 -29.99914062 70.41003906 -30.70703125 69.75195312 C-35.39450056 65.41186662 -40.17568968 61.18687389 -45 57 C-47.66666667 54.66666667 -50.33333333 52.33333333 -53 50 C-52.67 48.68 -52.34 47.36 -52 46 C-51.34 46 -50.68 46 -50 46 C-50 45.34 -50 44.68 -50 44 C-48.46804728 42.62787699 -46.87078919 41.3284554 -45.25 40.0625 C-40.93634718 36.61602481 -36.7962469 33.06839866 -32.75 29.3125 C-29.52428363 26.31973199 -26.29353039 23.34732684 -22.9375 20.5 C-21.47026573 19.25128999 -19.99900151 17.99897835 -18.65234375 16.62109375 C-16.43211503 14.44285517 -14.03882712 12.52332121 -11.625 10.5625 C-10.68914063 9.80066406 -9.75328125 9.03882813 -8.7890625 8.25390625 C-6.94486761 6.76356948 -5.08554268 5.29174384 -3.2109375 3.83984375 C-0.92792388 2.19039439 -0.92792388 2.19039439 0 0 Z " fill="#122842" transform="translate(670,604)"/>
<path d="M0 0 C0.33 0.66 0.66 1.32 1 2 C35.65 1.505 35.65 1.505 71 1 C71.495 2.98 71.495 2.98 72 5 C48.9 4.67 25.8 4.34 2 4 C2 128.41 2 252.82 2 381 C22.46 381 42.92 381 64 381 C64 286.95 64 192.9 64 96 C64.33 96 64.66 96 65 96 C65.33 191.04 65.66 286.08 66 384 C0 384 0 384 -3 382 C-2.01 382 -1.02 382 0 382 C-0.00515373 381.32134007 -0.01030746 380.64268013 -0.01561737 379.94345474 C-1.45635758 189.79698224 -1.45635758 189.79698224 0 0 Z " fill="#1D1F25" transform="translate(198,320)"/>
<path d="M0 0 C2.45587661 2.45587661 2.24635042 3.82634749 2.28433573 7.1787082 C2.282401 7.90438079 2.28046626 8.63005339 2.2784729 9.37771606 C2.2842653 10.14713276 2.2900577 10.91654945 2.29602563 11.7092818 C2.31310295 14.3011841 2.31590873 16.89290917 2.31884766 19.48486328 C2.32814051 21.33735596 2.33830821 23.18984443 2.34928894 25.04232788 C2.37667552 30.08336203 2.39176391 35.12436812 2.40471697 40.16545725 C2.42030976 45.4292566 2.44711217 50.69299829 2.4727478 55.95675659 C2.51960401 65.92980476 2.55631493 75.9028637 2.58942068 85.87596595 C2.62759382 97.22770616 2.67701651 108.57938856 2.72740483 119.9310801 C2.83082641 143.28734393 2.92005345 166.64364487 3 190 C3.66 190 4.32 190 5 190 C5.99 189.01 5.99 189.01 7 188 C6.44687265 192.02992782 5.8441938 196.02022924 5 200 C4.34 200 3.68 200 3 200 C2.67 200.99 2.34 201.98 2 203 C1.34 203 0.68 203 0 203 C-0.33 137 -0.66 71 -1 3 C-1.99 3.495 -1.99 3.495 -3 4 C-2.67 3.01 -2.34 2.02 -2 1 C-1.34 0.67 -0.68 0.34 0 0 Z " fill="#030E20" transform="translate(515,416)"/>
<path d="M0 0 C42.57 0 85.14 0 129 0 C130.65 2.97 132.3 5.94 134 9 C133.67 9.99 133.34 10.98 133 12 C132.01 11.505 132.01 11.505 131 11 C130.67 11.66 130.34 12.32 130 13 C128 7.375 128 7.375 128 4 C85.1 4 42.2 4 -2 4 C-1.34 2.68 -0.68 1.36 0 0 Z " fill="#2A2D37" transform="translate(648,539)"/>
<path d="M0 0 C0.99 0.495 0.99 0.495 2 1 C2.5625 2.9375 2.5625 2.9375 3 5 C3.33 5.66 3.66 6.32 4 7 C3.01 7 2.02 7 1 7 C1.16251975 8.09031273 1.3250395 9.18062546 1.49248409 10.30397797 C2.14758315 15.58408142 2.13543805 20.82223681 2.12025452 26.13635254 C2.12110894 27.23757997 2.12196337 28.3388074 2.12284368 29.47340536 C2.12448681 33.15220882 2.11899622 36.83096638 2.11352539 40.50976562 C2.11324324 43.15130719 2.1133578 45.79284598 2.1139679 48.43438721 C2.11449121 54.1157122 2.11136452 59.79702568 2.10573006 65.47834778 C2.09758898 73.69249653 2.09499716 81.90663974 2.09374207 90.12079209 C2.09155564 103.4490208 2.08490666 116.77724337 2.07543945 130.10546875 C2.06625474 143.04947886 2.05917909 155.99348729 2.05493164 168.9375 C2.05466892 169.73591303 2.05440619 170.53432605 2.05413551 171.35693341 C2.05283043 175.36249943 2.05156673 179.36806545 2.05032361 183.37363148 C2.03996375 216.58242545 2.02235658 249.7912119 2 283 C1.34 283.33 0.68 283.66 0 284 C0 190.28 0 96.56 0 0 Z " fill="#32323D" transform="translate(263,417)"/>
<path d="M0 0 C0.33 0 0.66 0 1 0 C1 66.33 1 132.66 1 201 C1.66 201.33 2.32 201.66 3 202 C2.67 202.99 2.34 203.98 2 205 C1.01 204.67 0.02 204.34 -1 204 C-0.505 203.01 -0.505 203.01 0 202 C0.08091618 200.40308905 0.09731153 198.80271601 0.08229065 197.2038269 C0.07525116 196.19137909 0.06821167 195.17893127 0.06095886 194.13580322 C0.04153984 192.46345612 0.04153984 192.46345612 0.02172852 190.75732422 C0.01212097 189.5866037 0.00251343 188.41588318 -0.00738525 187.20968628 C-0.03476239 183.99498272 -0.06665834 180.7803615 -0.10053515 177.56572104 C-0.13486246 174.20783749 -0.16345217 170.8499053 -0.19264221 167.49197388 C-0.24881089 161.13129032 -0.31016337 154.77066767 -0.37336355 148.41005051 C-0.4450551 141.16954892 -0.51099017 133.92899852 -0.57643402 126.68843818 C-0.71120286 111.79222874 -0.85322579 96.89609634 -1 82 C-1.33 82 -1.66 82 -2 82 C-2 66.49 -2 50.98 -2 35 C-1.67 35 -1.34 35 -1 35 C-1 34.07662842 -1 33.15325684 -1 32.2019043 C-1 1 -1 1 0 0 Z M-1 47 C0 50 0 50 0 50 Z M-1 51 C-1 58.26 -1 65.52 -1 73 C-0.67 73 -0.34 73 0 73 C0 65.74 0 58.48 0 51 C-0.33 51 -0.66 51 -1 51 Z " fill="#4D5C69" transform="translate(514,418)"/>
<path d="M0 0 C0.99280321 3.30947359 1.12571035 6.30770462 1.12698364 9.75558472 C1.13121338 11.51779861 1.13121338 11.51779861 1.13552856 13.31561279 C1.13249222 15.24355682 1.13249222 15.24355682 1.12939453 17.21044922 C1.13074989 18.5805974 1.13253059 19.95074521 1.13470459 21.32089233 C1.13926373 25.03995707 1.13749536 28.75899407 1.1343255 32.47805929 C1.13179305 36.37234668 1.13414201 40.2666317 1.13571167 44.16091919 C1.1375312 50.70282416 1.13513316 57.24471784 1.13037109 63.78662109 C1.12493344 71.34376172 1.12668839 78.90087535 1.1321975 86.45801532 C1.13674019 92.94985811 1.13737337 99.44169278 1.13475883 105.93353665 C1.13320184 109.80917943 1.13298636 113.68480954 1.13629532 117.56045151 C1.13919066 121.20642226 1.1371678 124.85235833 1.13140106 128.49832535 C1.12945453 130.46999311 1.13241355 132.44166382 1.13552856 134.41333008 C1.13270874 135.59377899 1.12988892 136.77422791 1.12698364 137.990448 C1.1264181 139.52297116 1.1264181 139.52297116 1.12584114 141.08645439 C0.99451401 144.1270147 0.56039551 147.01115081 0 150 C-0.33 150 -0.66 150 -1 150 C-1 101.16 -1 52.32 -1 2 C-25.09 2 -49.18 2 -74 2 C-74 1.67 -74 1.34 -74 1 C-65.08987701 0.86918759 -56.17974837 0.73876829 -47.26961231 0.60884857 C-43.13213127 0.54850718 -38.99465228 0.48803121 -34.85717773 0.42724609 C-30.86310466 0.36857271 -26.86902654 0.31025493 -22.87494469 0.25218201 C-21.3523509 0.22998171 -19.82975897 0.20765403 -18.30716896 0.18519592 C-16.17198787 0.15372405 -14.0368006 0.12270811 -11.90161133 0.09179688 C-10.6869368 0.07403198 -9.47226227 0.05626709 -8.22077942 0.03796387 C-5.48005629 0.0056585 -2.74085966 -0.00760165 0 0 Z " fill="#353B48" transform="translate(581,321)"/>
<path d="M0 0 C0.33 0 0.66 0 1 0 C1.042721 1.66611905 1.04063832 3.33382885 1 5 C-0.80044957 6.80044957 -3.52923411 6.13706544 -5.95678711 6.14526367 C-7.23158432 6.15164352 -8.50638153 6.15802338 -9.81980896 6.16459656 C-11.22232017 6.16612511 -12.62483189 6.16723914 -14.02734375 6.16796875 C-15.45601943 6.17117965 -16.88469478 6.17454359 -18.31336975 6.17805481 C-21.31202965 6.18405239 -24.3106607 6.18589407 -27.30932617 6.18530273 C-31.15757949 6.18520109 -35.0056484 6.19885297 -38.85385799 6.21607494 C-41.80575922 6.22717706 -44.75761562 6.2292225 -47.7095356 6.22869301 C-49.12855223 6.22987585 -50.54756991 6.23431454 -51.96656609 6.24202538 C-53.94895949 6.25178854 -55.93140666 6.24769253 -57.91381836 6.24291992 C-59.6080619 6.24505745 -59.6080619 6.24505745 -61.33653259 6.24723816 C-64 6 -64 6 -66 4 C-65.34 4 -64.68 4 -64 4 C-64 3.34 -64 2.68 -64 2 C-63.01 1.67 -62.02 1.34 -61 1 C-61 1.66 -61 2.32 -61 3 C-41.2 3 -21.4 3 -1 3 C-0.67 2.01 -0.34 1.02 0 0 Z " fill="#0F121F" transform="translate(578,698)"/>
<path d="M0 0 C0.33 1.32 0.66 2.64 1 4 C29.05 4 57.1 4 86 4 C86.33 3.01 86.66 2.02 87 1 C87.495 3.475 87.495 3.475 88 6 C59.29 6 30.58 6 1 6 C0.34 4.68 -0.32 3.36 -1 2 C-0.67 1.34 -0.34 0.68 0 0 Z " fill="#020815" transform="translate(670,490)"/>
<path d="M0 0 C0.33 0 0.66 0 1 0 C1.495 3.465 1.495 3.465 2 7 C-19.12 7 -40.24 7 -62 7 C-62 6.34 -62 5.68 -62 5 C-41.54 5 -21.08 5 0 5 C0 3.35 0 1.7 0 0 Z " fill="#0D101C" transform="translate(262,696)"/>
<path d="M0 0 C0.66 0.33 1.32 0.66 2 1 C1.0615625 1.89203125 0.123125 2.7840625 -0.84375 3.703125 C-2.0630207 4.88487968 -3.28174236 6.067201 -4.5 7.25 C-5.12003906 7.83652344 -5.74007812 8.42304687 -6.37890625 9.02734375 C-6.96542969 9.60097656 -7.55195312 10.17460938 -8.15625 10.765625 C-8.70087891 11.28930664 -9.24550781 11.81298828 -9.80664062 12.35253906 C-11.39108617 14.20085957 -11.39108617 14.20085957 -11 18 C-12.42578125 19.703125 -12.42578125 19.703125 -14.3125 21.25 C-14.92738281 21.77078125 -15.54226563 22.2915625 -16.17578125 22.828125 C-18 24 -18 24 -21 24 C-21.66 23.67 -22.32 23.34 -23 23 C-15.33333333 15.33333333 -7.66666667 7.66666667 0 0 Z " fill="#323F4F" transform="translate(785,655)"/>
<path d="M0 0 C0.66 0.66 1.32 1.32 2 2 C4.71034638 2.33232684 4.71034638 2.33232684 7.91845703 2.31884766 C9.15959259 2.33871735 10.40072815 2.35858704 11.67947388 2.37905884 C13.03891827 2.39093611 14.39836455 2.40259892 15.7578125 2.4140625 C17.14502118 2.43276729 18.5322184 2.45234019 19.91940308 2.4727478 C23.57225804 2.52414812 27.22514994 2.56373125 30.87817383 2.60089111 C34.60507397 2.64088148 38.33181949 2.69199639 42.05859375 2.7421875 C49.37228988 2.83904019 56.6860606 2.92341475 64 3 C64 3.33 64 3.66 64 4 C55.68999208 4.04628625 47.38003779 4.0818502 39.06993294 4.10362434 C35.21145203 4.11407343 31.35305915 4.128253 27.49462891 4.15087891 C23.77287808 4.1725674 20.05121206 4.18456014 16.32940292 4.18975449 C14.90758809 4.19345745 13.48577803 4.20068819 12.06399918 4.21146011 C10.07672886 4.22592119 8.08937369 4.22681646 6.10205078 4.22705078 C4.96953888 4.231492 3.83702698 4.23593323 2.67019653 4.24050903 C0 4 0 4 -2 2 C-1.34 2 -0.68 2 0 2 C0 1.34 0 0.68 0 0 Z " fill="#5E6775" transform="translate(514,700)"/>
<path d="M0 0 C7.12494035 6.89510357 13.59258011 14.44253038 20 22 C19.67 22.66 19.34 23.32 19 24 C13.17739422 19.35143462 8.5041324 14.19250172 3.8828125 8.35546875 C2.0610445 5.9871554 2.0610445 5.9871554 0 4 C0 2.68 0 1.36 0 0 Z " fill="#2B313C" transform="translate(299,357)"/>
<path d="M0 0 C1.78257471 3.23091667 2 5.32518002 2 9 C2.639375 9.28875 3.27875 9.5775 3.9375 9.875 C6 11 6 11 7 13 C6.34 13 5.68 13 5 13 C4.67 13.66 4.34 14.32 4 15 C1.03 12.36 -1.94 9.72 -5 7 C-4.67 5.68 -4.34 4.36 -4 3 C-3.34 3 -2.68 3 -2 3 C-2 2.34 -2 1.68 -2 1 C-1.34 0.67 -0.68 0.34 0 0 Z " fill="#1E2C3E" transform="translate(622,647)"/>
<path d="M0 0 C0.66 0 1.32 0 2 0 C-0.45765035 7.91909556 -3.66818573 15.41985296 -7 23 C-7.33 23 -7.66 23 -8 23 C-8.35050464 17.158256 -8.16727335 13.1468192 -5 8 C-4.34 8 -3.68 8 -3 8 C-2.690625 6.865625 -2.38125 5.73125 -2.0625 4.5625 C-1 1 -1 1 0 0 Z " fill="#202B3B" transform="translate(624,592)"/>
<path d="M0 0 C0.33 0 0.66 0 1 0 C1.25376143 5.07522852 0.47180796 9.17574056 -1 14 C-1.99 14.495 -1.99 14.495 -3 15 C-3.93845254 16.82287297 -4.80435092 18.68364553 -5.625 20.5625 C-6.07101562 21.57441406 -6.51703125 22.58632813 -6.9765625 23.62890625 C-7.31429687 24.41136719 -7.65203125 25.19382812 -8 26 C-8.33 26 -8.66 26 -9 26 C-8.46916643 19.7900898 -6.43648705 14.73809236 -3.9375 9.0625 C-3.37192383 7.75055664 -3.37192383 7.75055664 -2.79492188 6.41210938 C-1.87077032 4.27135324 -0.9390249 2.13426353 0 0 Z " fill="#222D3C" transform="translate(664,356)"/>
<path d="M0 0 C1.06366506 3.24595661 0.91053386 5.27417046 0.00390625 8.546875 C-0.22490234 9.39121094 -0.45371094 10.23554687 -0.68945312 11.10546875 C-0.93630859 11.97816406 -1.18316406 12.85085938 -1.4375 13.75 C-1.68048828 14.63816406 -1.92347656 15.52632812 -2.17382812 16.44140625 C-2.77396316 18.63013403 -3.38293345 20.81599686 -4 23 C-4.66 23 -5.32 23 -6 23 C-6.33 23.66 -6.66 24.32 -7 25 C-6.38955672 17.36945905 -4.20378179 10.29810526 -2 3 C-1.34 3 -0.68 3 0 3 C0 2.01 0 1.02 0 0 Z " fill="#292F3C" transform="translate(721,664)"/>
<path d="M0 0 C0.33 1.32 0.66 2.64 1 4 C0.236875 4.556875 -0.52625 5.11375 -1.3125 5.6875 C-4.00402422 8.0034627 -5.25112253 9.95847397 -7 13 C-7.680625 13.66 -8.36125 14.32 -9.0625 15 C-11.20164079 17.20814533 -12.03577214 19.10731641 -13 22 C-13.66 21.67 -14.32 21.34 -15 21 C-15 17.57653717 -14.64870777 17.23006878 -12.48046875 14.78515625 C-11.95259766 14.18123047 -11.42472656 13.57730469 -10.88085938 12.95507812 C-10.32205078 12.33052734 -9.76324219 11.70597656 -9.1875 11.0625 C-8.09661511 9.82513586 -7.00674234 8.58687856 -5.91796875 7.34765625 C-5.4079834 6.76902832 -4.89799805 6.19040039 -4.37255859 5.59423828 C-2.82216681 3.79344527 -1.38111008 1.93355411 0 0 Z " fill="#1D2634" transform="translate(432,408)"/>
<path d="M0 0 C3.72355269 3.66909488 7.2943376 7.44674879 10.8125 11.3125 C11.56563477 12.13717773 11.56563477 12.13717773 12.33398438 12.97851562 C13.55703968 14.31805239 14.77867008 15.65888992 16 17 C15.67 17.66 15.34 18.32 15 19 C9.23049679 14.33944027 3.93708023 9.34854187 0 3 C0 2.01 0 1.02 0 0 Z " fill="#2B313B" transform="translate(281,336)"/>
<path d="M0 0 C5.94 0 11.88 0 18 0 C19.32 2.64 20.64 5.28 22 8 C21.67 8.99 21.34 9.98 21 11 C20.34 10.67 19.68 10.34 19 10 C18.67 10.66 18.34 11.32 18 12 C17.34 10.02 16.68 8.04 16 6 C16.33 5.67 16.66 5.34 17 5 C17 3.68 17 2.36 17 1 C11.39 1 5.78 1 0 1 C0 0.67 0 0.34 0 0 Z " fill="#232835" transform="translate(760,540)"/>
<path d="M0 0 C0.99 0.66 1.98 1.32 3 2 C2.44271087 5.34373475 1.64826111 8.03312999 0 11 C-0.66 11 -1.32 11 -2 11 C-2.66 12.65 -3.32 14.3 -4 16 C-4.66 16 -5.32 16 -6 16 C-4.25192871 10.53262809 -2.34205919 5.24175152 0 0 Z " fill="#202D3F" transform="translate(587,532)"/>
<path d="M0 0 C0.99 0.495 0.99 0.495 2 1 C2.5625 2.9375 2.5625 2.9375 3 5 C3.33 5.66 3.66 6.32 4 7 C3.01 7 2.02 7 1 7 C1.26103516 8.5778125 1.26103516 8.5778125 1.52734375 10.1875 C2.2704087 16.13201959 1.85978928 22.03371178 1.5625 28 C1.51029297 29.15628906 1.45808594 30.31257813 1.40429688 31.50390625 C1.27555291 34.33627353 1.14063319 37.16820235 1 40 C0.67 40 0.34 40 0 40 C0 26.8 0 13.6 0 0 Z " fill="#2D303B" transform="translate(263,417)"/>
<path d="M0 0 C0.33 0 0.66 0 1 0 C0.44147333 5.4367976 -0.93957617 9.9183367 -3.0625 14.9375 C-3.34416016 15.62134766 -3.62582031 16.30519531 -3.91601562 17.00976562 C-4.6035405 18.67613946 -5.30076175 20.33850727 -6 22 C-8.11665763 18.5834307 -8.11665763 18.5834307 -7.6003418 16.0012207 C-7.30297119 15.31632568 -7.00560059 14.63143066 -6.69921875 13.92578125 C-6.38146484 13.17619141 -6.06371094 12.42660156 -5.73632812 11.65429688 C-5.39021484 10.88150391 -5.04410156 10.10871094 -4.6875 9.3125 C-4.35298828 8.52810547 -4.01847656 7.74371094 -3.67382812 6.93554688 C-1.20027546 1.20027546 -1.20027546 1.20027546 0 0 Z " fill="#252A35" transform="translate(529,585)"/>
<path d="M0 0 C0.66 0.33 1.32 0.66 2 1 C0.38989473 5.07376031 -2.53822271 7.76507069 -5.625 10.75 C-6.140625 11.25660156 -6.65625 11.76320313 -7.1875 12.28515625 C-8.45383339 13.52803902 -9.7263144 14.76465276 -11 16 C-11 10.37522089 -5.96398137 5.84998132 -2.125 2 C-1.42375 1.34 -0.7225 0.68 0 0 Z " fill="#091E37" transform="translate(788,654)"/>
<path d="M0 0 C1 2 1 2 0.1875 5.0625 C-1 8 -1 8 -3 9 C-3.33 9.99 -3.66 10.98 -4 12 C-4.66 12 -5.32 12 -6 12 C-6 8.37 -6 4.74 -6 1 C-4.515 1.99 -4.515 1.99 -3 3 C-2.01 2.01 -1.02 1.02 0 0 Z " fill="#1B222F" transform="translate(521,607)"/>
<path d="M0 0 C2 3 2 3 1.625 6.1875 C1.41875 7.115625 1.2125 8.04375 1 9 C0.01 9.33 -0.98 9.66 -2 10 C-2.33 11.65 -2.66 13.3 -3 15 C-3.99 15.33 -4.98 15.66 -6 16 C-4.25192871 10.53262809 -2.34205919 5.24175152 0 0 Z " fill="#242F3F" transform="translate(580,548)"/>
<path d="M0 0 C0.99 0.66 1.98 1.32 3 2 C2.60404157 3.48484412 2.18249294 4.9628831 1.75 6.4375 C1.40195312 7.67306641 1.40195312 7.67306641 1.046875 8.93359375 C0.70140625 9.61550781 0.3559375 10.29742188 0 11 C-2.046875 11.66015625 -2.046875 11.66015625 -4 12 C-4.33 12.66 -4.66 13.32 -5 14 C-4.34580901 8.93001981 -2.1453591 4.58009223 0 0 Z " fill="#0D233D" transform="translate(645,540)"/>
<path d="M0 0 C1.86889895 2.80334843 3.27024908 5.51277094 4.6875 8.5625 C5.14511719 9.53316406 5.60273437 10.50382812 6.07421875 11.50390625 C6.37972656 12.32761719 6.68523438 13.15132813 7 14 C6.67 14.66 6.34 15.32 6 16 C3.49962266 13.82575883 2.56371414 12.26954202 2 9 C1.34 9 0.68 9 0 9 C-1.125 3.375 -1.125 3.375 0 0 Z " fill="#253344" transform="translate(787,416)"/>
<path d="M0 0 C0.66 0.33 1.32 0.66 2 1 C0.12050295 4.57104439 -1.17053157 6.54744301 -5 8 C-5 8.66 -5 9.32 -5 10 C-6.5 11.625 -6.5 11.625 -8 13 C-8.66 12.67 -9.32 12.34 -10 12 C-7.49653351 7.14032976 -3.91447559 3.72143296 0 0 Z " fill="#272D38" transform="translate(802,665)"/>
<path d="M0 0 C3.23680864 2.92491059 5.03891721 5.64917394 6.8125 9.625 C7.25207031 10.58664062 7.69164062 11.54828125 8.14453125 12.5390625 C8.56798828 13.75722656 8.56798828 13.75722656 9 15 C8.67 15.66 8.34 16.32 8 17 C5.15676575 14.53197261 3.84119176 11.91545546 2.3125 8.5 C1.87550781 7.5409375 1.43851563 6.581875 0.98828125 5.59375 C0 3 0 3 0 0 Z " fill="#222834" transform="translate(775,392)"/>
<path d="M0 0 C0.33 0.66 0.66 1.32 1 2 C1.66 2.33 2.32 2.66 3 3 C1.35 4.65 -0.3 6.3 -2 8 C-2.99 7.67 -3.98 7.34 -5 7 C-5.6875 4.9375 -5.6875 4.9375 -6 3 C-4 2 -2 1 0 0 Z " fill="#1F374F" transform="translate(674,695)"/>
<path d="M0 0 C3.84543261 0.69545058 5.46091853 2.20822108 7.89453125 5.30078125 C9.46958608 7.72180192 10.27224852 10.22131255 11 13 C9.35 12.67 7.7 12.34 6 12 C6 10.68 6 9.36 6 8 C4.71359754 5.8023461 4.71359754 5.8023461 3 3.75 C2.443125 3.04359375 1.88625 2.3371875 1.3125 1.609375 C0.879375 1.07828125 0.44625 0.5471875 0 0 Z " fill="#323A46" transform="translate(322,488)"/>
<path d="M0 0 C1.32435978 3.97307934 0.18129186 6.80974568 -0.9375 10.6875 C-1.13279297 11.38939453 -1.32808594 12.09128906 -1.52929688 12.81445312 C-2.01199136 14.54508944 -2.50500846 16.27284066 -3 18 C-4.84006479 15.29990493 -5.01314295 14.10764077 -4.609375 10.80078125 C-4.32578125 9.64964844 -4.0421875 8.49851562 -3.75 7.3125 C-3.47671875 6.15363281 -3.2034375 4.99476563 -2.921875 3.80078125 C-2.61765625 2.87652344 -2.3134375 1.95226562 -2 1 C-1.34 0.67 -0.68 0.34 0 0 Z " fill="#2B313D" transform="translate(732,623)"/>
<path d="M0 0 C0.33 0 0.66 0 1 0 C1 11.55 1 23.1 1 35 C0.67 35 0.34 35 0 35 C0 23.45 0 11.9 0 0 Z " fill="#3A4B5C" transform="translate(512,529)"/>
<path d="M0 0 C0.66 0 1.32 0 2 0 C2.598125 1.051875 3.19625 2.10375 3.8125 3.1875 C5.50370009 6.14860478 7.23249052 9.08360936 9 12 C8.01 12 7.02 12 6 12 C4.39453125 10.390625 4.39453125 10.390625 2.8125 8.25 C2.01779297 7.20585937 2.01779297 7.20585937 1.20703125 6.140625 C0 4 0 4 0 0 Z " fill="#222E3E" transform="translate(286,440)"/>
<path d="M0 0 C0 3.36332514 -0.60544155 4.35303272 -2.375 7.125 C-2.81585938 7.82882812 -3.25671875 8.53265625 -3.7109375 9.2578125 C-5 11 -5 11 -7 12 C-7.33 12.66 -7.66 13.32 -8 14 C-8.99 14 -9.98 14 -11 14 C-9.63055898 11.05043472 -8.12169591 8.47531189 -6 6 C-5.34 6 -4.68 6 -4 6 C-3.71125 5.38125 -3.4225 4.7625 -3.125 4.125 C-2 2 -2 2 0 0 Z " fill="#313A48" transform="translate(410,434)"/>
<path d="M0 0 C4.61286713 1.31796204 8.14865412 3.13388214 12 6 C12.33 6.66 12.66 7.32 13 8 C12.34 8 11.68 8 11 8 C10.67 8.66 10.34 9.32 10 10 C8.33037631 8.52417192 6.6643694 7.04425109 5 5.5625 C4.071875 4.73878906 3.14375 3.91507813 2.1875 3.06640625 C1.465625 2.38449219 0.74375 1.70257812 0 1 C0 0.67 0 0.34 0 0 Z " fill="#283444" transform="translate(769,636)"/>
<path d="M0 0 C0.33 0.66 0.66 1.32 1 2 C0.09176973 4.43557572 -0.86828071 6.76195517 -1.9375 9.125 C-2.22818359 9.78371094 -2.51886719 10.44242188 -2.81835938 11.12109375 C-3.53860198 12.75049505 -4.26841143 14.37566132 -5 16 C-5.33 16 -5.66 16 -6 16 C-5.50523351 10.35966205 -4.58054378 6.05786581 -2 1 C-1.34 0.67 -0.68 0.34 0 0 Z " fill="#292F39" transform="translate(632,576)"/>
<path d="M0 0 C2 2 2 2 3 5.5625 C3.33 6.696875 3.66 7.83125 4 9 C4.66 9.33 5.32 9.66 6 10 C6.625 13.0625 6.625 13.0625 7 16 C3.51972228 13.77262226 2.1664465 11.8372666 0.6875 8 C0.34074219 7.13375 -0.00601563 6.2675 -0.36328125 5.375 C-1 3 -1 3 0 0 Z " fill="#2E3541" transform="translate(842,543)"/>
<path d="M0 0 C0.66 0.66 1.32 1.32 2 2 C1.53846154 8.46153846 1.53846154 8.46153846 -1 11 C-1.99 11 -2.98 11 -4 11 C-3.52269162 9.5410574 -3.04308958 8.08286504 -2.5625 6.625 C-2.29566406 5.81289063 -2.02882813 5.00078125 -1.75390625 4.1640625 C-1 2 -1 2 0 0 Z " fill="#253243" transform="translate(524,677)"/>
<path d="M0 0 C3 1 3 1 4.16796875 3.1796875 C4.50441406 4.06914063 4.84085938 4.95859375 5.1875 5.875 C5.53167969 6.75929688 5.87585938 7.64359375 6.23046875 8.5546875 C7 11 7 11 7 14 C6.34 14 5.68 14 5 14 C4.15973604 12.23244474 3.32801278 10.46082737 2.5 8.6875 C2.0359375 7.70136719 1.571875 6.71523438 1.09375 5.69921875 C0 3 0 3 0 0 Z " fill="#2B303A" transform="translate(794,582)"/>
<path d="M0 0 C2.01952506 6.05857519 2.07899522 9.88530818 0 16 C-1.98376188 12.7317333 -2.1540383 10.64103206 -1.6875 6.875 C-1.58824219 6.00617187 -1.48898437 5.13734375 -1.38671875 4.2421875 C-1 2 -1 2 0 0 Z " fill="#27384B" transform="translate(707,708)"/>
<path d="M0 0 C0.66 1.32 1.32 2.64 2 4 C0.68 5.32 -0.64 6.64 -2 8 C-2.99 7.67 -3.98 7.34 -5 7 C-4.67 5.68 -4.34 4.36 -4 3 C-3.34 3 -2.68 3 -2 3 C-2 2.34 -2 1.68 -2 1 C-1.34 0.67 -0.68 0.34 0 0 Z " fill="#253447" transform="translate(622,647)"/>
<path d="M0 0 C0.66 0.33 1.32 0.66 2 1 C1.34580901 6.06998019 -0.8546409 10.41990777 -3 15 C-3.33 15 -3.66 15 -4 15 C-3.43179252 9.54520815 -2.05362055 5.08940744 0 0 Z " fill="#2B303C" transform="translate(538,563)"/>
<path d="M0 0 C4.83256305 0.41421969 6.82679218 2.46413986 10 6 C9.67 6.99 9.34 7.98 9 9 C7.68 8.34 6.36 7.68 5 7 C5 6.34 5 5.68 5 5 C4.175 4.505 3.35 4.01 2.5 3.5 C1.675 3.005 0.85 2.51 0 2 C0 1.34 0 0.68 0 0 Z " fill="#29313D" transform="translate(780,646)"/>
<path d="M0 0 C1.53166168 4.08443115 0.63081652 7.79455657 0 12 C-0.66 12 -1.32 12 -2 12 C-2.33 13.65 -2.66 15.3 -3 17 C-3.66 16.34 -4.32 15.68 -5 15 C-3.33333333 10 -1.66666667 5 0 0 Z " fill="#3A424F" transform="translate(717,598)"/>
<path d="M0 0 C2.24956302 2.24956302 3.00510965 4.06323263 4.1875 7 C4.55230469 7.886875 4.91710937 8.77375 5.29296875 9.6875 C6 12 6 12 5 14 C2.20918661 12.6045933 1.96096994 10.98580959 0.8125 8.125 C0.26529297 6.79855469 0.26529297 6.79855469 -0.29296875 5.4453125 C-1 3 -1 3 0 0 Z " fill="#2D343E" transform="translate(822,497)"/>
<path d="M0 0 C0.66 0.66 1.32 1.32 2 2 C4.12860662 2.36952049 4.12860662 2.36952049 6.5703125 2.4140625 C7.46621094 2.45273437 8.36210938 2.49140625 9.28515625 2.53125 C10.22230469 2.5621875 11.15945313 2.593125 12.125 2.625 C13.54232422 2.68300781 13.54232422 2.68300781 14.98828125 2.7421875 C17.32532375 2.83661346 19.66235501 2.92218394 22 3 C22 3.33 22 3.66 22 4 C18.37506666 4.05787784 14.75025143 4.0935542 11.125 4.125 C10.09246094 4.14175781 9.05992187 4.15851562 7.99609375 4.17578125 C7.00996094 4.18222656 6.02382813 4.18867187 5.0078125 4.1953125 C3.64100342 4.21102295 3.64100342 4.21102295 2.24658203 4.22705078 C0 4 0 4 -2 2 C-1.34 2 -0.68 2 0 2 C0 1.34 0 0.68 0 0 Z " fill="#5A616C" transform="translate(514,700)"/>
<path d="M0 0 C4.99275057 1.27721526 7.57611908 3.17330957 11 7 C10.67 7.99 10.34 8.98 10 10 C8.33037631 8.52417192 6.6643694 7.04425109 5 5.5625 C4.071875 4.73878906 3.14375 3.91507813 2.1875 3.06640625 C1.465625 2.38449219 0.74375 1.70257812 0 1 C0 0.67 0 0.34 0 0 Z " fill="#2B313C" transform="translate(639,673)"/>
<path d="M0 0 C0.66 0 1.32 0 2 0 C2 0.66 2 1.32 2 2 C3.32 2.66 4.64 3.32 6 4 C5.25 5.9375 5.25 5.9375 4 8 C1.875 8.75 1.875 8.75 0 9 C0.37125 8.443125 0.7425 7.88625 1.125 7.3125 C2.29515863 4.94283647 2.29515863 4.94283647 1.125 2.25 C0.75375 1.5075 0.3825 0.765 0 0 Z " fill="#2E3642" transform="translate(812,648)"/>
<path d="M0 0 C1.305239 3.91571701 0.32239848 5.03892997 -1.4375 8.6875 C-1.91058594 9.68136719 -2.38367188 10.67523437 -2.87109375 11.69921875 C-3.42990234 12.83810547 -3.42990234 12.83810547 -4 14 C-4.33 14 -4.66 14 -5 14 C-5.34833144 9.12335991 -4.41685712 6.22949995 -2 2 C-1.34 2 -0.68 2 0 2 C0 1.34 0 0.68 0 0 Z " fill="#313642" transform="translate(604,640)"/>
<path d="M0 0 C1.15866723 4.63466892 0.70010994 7.33260039 0 12 C-0.66 12 -1.32 12 -2 12 C-2.33 12.66 -2.66 13.32 -3 14 C-3.99 13.01 -4.98 12.02 -6 11 C-5.67 10.34 -5.34 9.68 -5 9 C-4.01 9.33 -3.02 9.66 -2 10 C-1.34 6.7 -0.68 3.4 0 0 Z " fill="#3C4654" transform="translate(710,624)"/>
<path d="M0 0 C1.31534494 3.65857532 0.65468309 6.08026481 -0.4375 9.75 C-0.86869141 11.22726562 -0.86869141 11.22726562 -1.30859375 12.734375 C-1.53675781 13.48203125 -1.76492188 14.2296875 -2 15 C-3.36398513 12.75700222 -4.05762059 11.50929167 -3.7578125 8.859375 C-3.171875 6.90625 -2.5859375 4.953125 -2 3 C-1.34 3 -0.68 3 0 3 C0 2.01 0 1.02 0 0 Z " fill="#323843" transform="translate(740,592)"/>
<path d="M0 0 C1.66666667 1.66666667 3.33333333 3.33333333 5 5 C5.61875 5.515625 6.2375 6.03125 6.875 6.5625 C7.431875 7.2740625 7.431875 7.2740625 8 8 C7.5703125 10.08984375 7.5703125 10.08984375 7 12 C5.82455195 10.56967163 4.65989738 9.13046758 3.5 7.6875 C2.8503125 6.88699219 2.200625 6.08648437 1.53125 5.26171875 C0 3 0 3 0 0 Z " fill="#262B35" transform="translate(311,472)"/>
<path d="M0 0 C3.32637022 2.69277589 4.58473125 6.03724749 6 10 C5.67 10.99 5.34 11.98 5 13 C4.896875 12.360625 4.79375 11.72125 4.6875 11.0625 C4.460625 10.381875 4.23375 9.70125 4 9 C3.01 8.67 2.02 8.34 1 8 C0.67 5.36 0.34 2.72 0 0 Z " fill="#20242D" transform="translate(741,456)"/>
<path d="M0 0 C1.23593891 3.70781672 0.5678132 4.67510253 -0.9375 8.1875 C-1.31777344 9.08855469 -1.69804688 9.98960937 -2.08984375 10.91796875 C-2.54037109 11.94857422 -2.54037109 11.94857422 -3 13 C-4.40944669 10.72752255 -5.10681701 9.57574366 -4.609375 6.89453125 C-4.32578125 6.20746094 -4.0421875 5.52039063 -3.75 4.8125 C-3.47671875 4.11769531 -3.2034375 3.42289062 -2.921875 2.70703125 C-2 1 -2 1 0 0 Z " fill="#2E3441" transform="translate(696,429)"/>
<path d="M0 0 C0.33 0 0.66 0 1 0 C1.125 7.625 1.125 7.625 0 11 C-0.66 11 -1.32 11 -2 11 C-2.33 11.99 -2.66 12.98 -3 14 C-2.48594831 9.03083364 -1.76615118 4.70973649 0 0 Z " fill="#1E222D" transform="translate(742,581)"/>
<path d="M0 0 C2.96052484 3.36423277 3.92289822 6.69159287 5 11 C2 10 2 10 0.25 7.1875 C-0.98589446 4.03596914 -1.28222189 3.03070628 0 0 Z " fill="#29303C" transform="translate(828,511)"/>
<path d="M0 0 C0.99 0 1.98 0 3 0 C2.54738642 1.43931117 2.08767021 2.87638999 1.625 4.3125 C1.36976563 5.11300781 1.11453125 5.91351563 0.8515625 6.73828125 C0 9 0 9 -2 12 C-3.12377697 8.69564916 -2.89554742 6.9493138 -1.5625 3.75 C-1.27503906 3.04359375 -0.98757813 2.3371875 -0.69140625 1.609375 C-0.46324219 1.07828125 -0.23507812 0.5471875 0 0 Z " fill="#292F3B" transform="translate(683,457)"/>
<path d="M0 0 C0.33 1.32 0.66 2.64 1 4 C-1.31 5.98 -3.62 7.96 -6 10 C-6 6.41087588 -5.33563446 5.89142971 -3 3.3125 C-2.443125 2.68988281 -1.88625 2.06726563 -1.3125 1.42578125 C-0.879375 0.95527344 -0.44625 0.48476563 0 0 Z " fill="#2C3440" transform="translate(452,385)"/>
<path d="M0 0 C1.31223496 3.93670488 0.24296256 6.12488144 -1 10 C-1.66 9.34 -2.32 8.68 -3 8 C-2.75 4.4375 -2.75 4.4375 -2 1 C-1.34 0.67 -0.68 0.34 0 0 Z " fill="#172536" transform="translate(528,671)"/>
<path d="M0 0 C0.99 0.99 1.98 1.98 3 3 C2.34 4.98 1.68 6.96 1 9 C-0.32 9 -1.64 9 -3 9 C-2.01 6.03 -1.02 3.06 0 0 Z " fill="#233245" transform="translate(552,612)"/>
<path d="M0 0 C0.99 0.33 1.98 0.66 3 1 C4.33599181 4.00598158 5.14345053 6.09147996 4.625 9.375 C4.41875 9.91125 4.2125 10.4475 4 11 C3.67 9.68 3.34 8.36 3 7 C1.68 6.67 0.36 6.34 -1 6 C-0.34 5.34 0.32 4.68 1 4 C0.6814823 1.89179203 0.6814823 1.89179203 0 0 Z " fill="#343944" transform="translate(787,566)"/>
<path d="M0 0 C1.21386936 3.64160808 0.6674695 4.33165469 -0.9375 7.6875 C-1.31777344 8.49574219 -1.69804688 9.30398438 -2.08984375 10.13671875 C-2.39019531 10.75160156 -2.69054687 11.36648438 -3 12 C-4.078125 10.23046875 -4.078125 10.23046875 -5 8 C-2.75510204 1.37755102 -2.75510204 1.37755102 0 0 Z " fill="#2C3340" transform="translate(556,524)"/>
<path d="M0 0 C0.33 0.66 0.66 1.32 1 2 C0.22265625 4.1640625 0.22265625 4.1640625 -0.9375 6.625 C-1.31777344 7.44226563 -1.69804688 8.25953125 -2.08984375 9.1015625 C-2.39019531 9.72804688 -2.69054687 10.35453125 -3 11 C-3.66 11 -4.32 11 -5 11 C-5.33 11.66 -5.66 12.32 -6 13 C-5.67 11.35 -5.34 9.7 -5 8 C-4.34 8 -3.68 8 -3 8 C-3.061875 7.236875 -3.12375 6.47375 -3.1875 5.6875 C-3 3 -3 3 -1.5 1.1875 C-1.005 0.795625 -0.51 0.40375 0 0 Z " fill="#0A1E36" transform="translate(601,507)"/>
<path d="M0 0 C2.31 1.98 4.62 3.96 7 6 C5.02 6.99 5.02 6.99 3 8 C0.4345406 5.4345406 0.45953913 3.52313332 0 0 Z " fill="#2C3849" transform="translate(801,637)"/>
<path d="M0 0 C2 2 2 2 2.08203125 3.875 C1.99308594 4.57625 1.90414062 5.2775 1.8125 6 C1.69841797 7.051875 1.69841797 7.051875 1.58203125 8.125 C1 10 1 10 -2 12 C-1 3.42857143 -1 3.42857143 0 0 Z " fill="#313947" transform="translate(706,638)"/>
<path d="M0 0 C0.33 0 0.66 0 1 0 C1 7.59 1 15.18 1 23 C0.67 23 0.34 23 0 23 C0 15.41 0 7.82 0 0 Z " fill="#3C4D5C" transform="translate(512,565)"/>
<path d="M0 0 C3 1 3 1 4.1875 3.25 C4.99938294 5.99791147 5.16260121 8.15447889 5 11 C2.03947516 7.63576723 1.07710178 4.30840713 0 0 Z " fill="#1F242F" transform="translate(837,535)"/>
<path d="M0 0 C0.99 0 1.98 0 3 0 C5.35953094 2.35953094 5.49141413 3.77895617 6 7 C4.68 7 3.36 7 2 7 C1.34 4.69 0.68 2.38 0 0 Z " fill="#223449" transform="translate(800,453)"/>
<path d="M0 0 C2.93200474 2.85276137 5.64315404 5.65079784 8 9 C4.86493389 8.66410006 3.974751 7.97334828 1.75 5.625 C0 3 0 3 0 0 Z " fill="#29303B" transform="translate(319,381)"/>
<path d="M0 0 C0.33 0.66 0.66 1.32 1 2 C0.22265625 4.1640625 0.22265625 4.1640625 -0.9375 6.625 C-1.31777344 7.44226563 -1.69804688 8.25953125 -2.08984375 9.1015625 C-2.39019531 9.72804688 -2.69054687 10.35453125 -3 11 C-3.66 10.01 -4.32 9.02 -5 8 C-2.70833333 1.35416667 -2.70833333 1.35416667 0 0 Z " fill="#2A2F3B" transform="translate(585,684)"/>
<path d="M0 0 C0.66 0.66 1.32 1.32 2 2 C2.66 1.67 3.32 1.34 4 1 C3.45773019 4.79588866 1.79872437 6.47211993 -1 9 C-0.67 6.03 -0.34 3.06 0 0 Z " fill="#1F2A39" transform="translate(400,544)"/>
<path d="M0 0 C0.99 0.495 0.99 0.495 2 1 C2.5625 2.9375 2.5625 2.9375 3 5 C3.33 5.66 3.66 6.32 4 7 C3.01 7 2.02 7 1 7 C1 9.31 1 11.62 1 14 C0.67 14 0.34 14 0 14 C0 9.38 0 4.76 0 0 Z " fill="#373F4E" transform="translate(263,417)"/>
<path d="M0 0 C0.66 0.33 1.32 0.66 2 1 C0.02 3.31 -1.96 5.62 -4 8 C-5.32 7.67 -6.64 7.34 -8 7 C-5.36 4.69 -2.72 2.38 0 0 Z " fill="#323944" transform="translate(667,607)"/>
<path d="M0 0 C-4.625 4 -4.625 4 -8 4 C-8.33 4.66 -8.66 5.32 -9 6 C-9.33 5.01 -9.66 4.02 -10 3 C-6.68152292 -0.06320961 -4.44849969 -0.3033068 0 0 Z " fill="#1E334C" transform="translate(730,580)"/>
<path d="M0 0 C0.33 0.66 0.66 1.32 1 2 C0.22265625 4.1640625 0.22265625 4.1640625 -0.9375 6.625 C-1.31777344 7.44226563 -1.69804688 8.25953125 -2.08984375 9.1015625 C-2.39019531 9.72804688 -2.69054687 10.35453125 -3 11 C-3.33 11 -3.66 11 -4 11 C-3.54177532 7.53058454 -3.10868317 4.32604951 -2 1 C-1.34 0.67 -0.68 0.34 0 0 Z " fill="#2E343F" transform="translate(578,473)"/>
<path d="M0 0 C6.42857143 4.14285714 6.42857143 4.14285714 9 7 C8.67 7.66 8.34 8.32 8 9 C6.66079162 7.88200014 5.32877444 6.75538103 4 5.625 C2.88625 4.68527344 2.88625 4.68527344 1.75 3.7265625 C1.1725 3.15679687 0.595 2.58703125 0 2 C0 1.34 0 0.68 0 0 Z " fill="#252B37" transform="translate(360,431)"/>
<path d="M0 0 C0.66 0 1.32 0 2 0 C3.625 3.3125 3.625 3.3125 5 7 C4.01 8.485 4.01 8.485 3 10 C0 3.375 0 3.375 0 0 Z " fill="#282F3B" transform="translate(720,408)"/>
<path d="M0 0 C0.33 1.32 0.66 2.64 1 4 C-1.64 5.98 -4.28 7.96 -7 10 C-4.98127747 5.96255494 -2.91899872 3.37989325 0 0 Z " fill="#2F353F" transform="translate(432,408)"/>
<path d="M0 0 C5.57142857 5.14285714 5.57142857 5.14285714 6 9 C1.3125 5.484375 1.3125 5.484375 0 4 C0 2.68 0 1.36 0 0 Z " fill="#252B37" transform="translate(299,357)"/>
<path d="M0 0 C6.42857143 4.14285714 6.42857143 4.14285714 9 7 C8.67 7.66 8.34 8.32 8 9 C6.66079162 7.88200014 5.32877444 6.75538103 4 5.625 C2.88625 4.68527344 2.88625 4.68527344 1.75 3.7265625 C1.1725 3.15679687 0.595 2.58703125 0 2 C0 1.34 0 0.68 0 0 Z " fill="#252A35" transform="translate(288,346)"/>
<path d="M0 0 C0.33 0 0.66 0 1 0 C1.33 2.64 1.66 5.28 2 8 C1.01 8 0.02 8 -1 8 C-1.33 8.99 -1.66 9.98 -2 11 C-1.85892253 9.54119891 -1.71197585 8.08296449 -1.5625 6.625 C-1.48128906 5.81289063 -1.40007813 5.00078125 -1.31640625 4.1640625 C-1 2 -1 2 0 0 Z " fill="#191E2A" transform="translate(709,705)"/>
<path d="M0 0 C2.46800047 1.15173355 4.04783565 2.04783565 6 4 C5.67 4.99 5.34 5.98 5 7 C4.01 6.34 3.02 5.68 2 5 C2 4.34 2 3.68 2 3 C1.01 2.67 0.02 2.34 -1 2 C-0.67 1.34 -0.34 0.68 0 0 Z " fill="#2D333E" transform="translate(759,625)"/>
<path d="M0 0 C0.99 0 1.98 0 3 0 C3 0.99 3 1.98 3 3 C1 4.6875 1 4.6875 -1 6 C-1.66 5.67 -2.32 5.34 -3 5 C-1.125 1.125 -1.125 1.125 0 0 Z " fill="#22354A" transform="translate(396,450)"/>
<path d="M0 0 C1.2077558 3.62326739 0.54311128 4.64146369 -1 8 C-1.99 8 -2.98 8 -4 8 C-4.33 7.34 -4.66 6.68 -5 6 C-4.67 5.01 -4.34 4.02 -4 3 C-1.9375 2.3125 -1.9375 2.3125 0 2 C0 1.34 0 0.68 0 0 Z " fill="#29374A" transform="translate(690,444)"/>
<path d="M0 0 C2 4 2 4 2 7 C0.35 7.66 -1.3 8.32 -3 9 C-2.01 6.03 -1.02 3.06 0 0 Z " fill="#2B3645" transform="translate(674,333)"/>
<path d="M0 0 C1.41687119 4.25061356 0.19320039 6.71851625 -1 11 C-1.33 11 -1.66 11 -2 11 C-2.05399736 9.54207116 -2.09279177 8.08357288 -2.125 6.625 C-2.15980469 5.40683594 -2.15980469 5.40683594 -2.1953125 4.1640625 C-2 2 -2 2 0 0 Z " fill="#191D27" transform="translate(689,708)"/>
<path d="M0 0 C2.64 1.98 5.28 3.96 8 6 C7.01 6.33 6.02 6.66 5 7 C2.3125 5.25 2.3125 5.25 0 3 C0 2.01 0 1.02 0 0 Z " fill="#2C313D" transform="translate(665,669)"/>
<path d="M0 0 C0.66 0 1.32 0 2 0 C1.01 2.97 0.02 5.94 -1 9 C-1.33 9 -1.66 9 -2 9 C-2.25 3.375 -2.25 3.375 0 0 Z " fill="#2C323E" transform="translate(597,654)"/>
<path d="M0 0 C3 1 3 1 4.3125 3.375 C4.6528125 4.674375 4.6528125 4.674375 5 6 C4.01 7.485 4.01 7.485 3 9 C3 8.34 3 7.68 3 7 C2.34 6.67 1.68 6.34 1 6 C0.375 2.9375 0.375 2.9375 0 0 Z " fill="#313742" transform="translate(783,557)"/>
<path d="M0 0 C0.33 0 0.66 0 1 0 C0.67 2.97 0.34 5.94 0 9 C-0.99 9 -1.98 9 -3 9 C-2.01 6.03 -1.02 3.06 0 0 Z " fill="#2E3643" transform="translate(594,516)"/>
<path d="M0 0 C0.33 0 0.66 0 1 0 C1 6.27 1 12.54 1 19 C0.67 19 0.34 19 0 19 C0 12.73 0 6.46 0 0 Z " fill="#394A5B" transform="translate(512,501)"/>
<path d="M0 0 C0.33 0 0.66 0 1 0 C1.36923077 5.53846154 1.36923077 5.53846154 -0.5 7.875 C-1.2425 8.431875 -1.2425 8.431875 -2 9 C-2.33 8.34 -2.66 7.68 -3 7 C-2.06421005 4.64018187 -1.06652192 2.30368736 0 0 Z " fill="#1D212C" transform="translate(707,399)"/>
<path d="M0 0 C3.057952 1.73559438 5.63379989 3.38472619 8 6 C7.67 6.66 7.34 7.32 7 8 C5.8274869 7.04882866 4.66212985 6.08882991 3.5 5.125 C2.8503125 4.59132813 2.200625 4.05765625 1.53125 3.5078125 C1.0259375 3.01023437 0.520625 2.51265625 0 2 C0 1.34 0 0.68 0 0 Z " fill="#292F3C" transform="translate(273,328)"/>
<path d="M0 0 C2.475 0.495 2.475 0.495 5 1 C4.67 2.32 4.34 3.64 4 5 C2.68 4.34 1.36 3.68 0 3 C0 2.01 0 1.02 0 0 Z " fill="#2C333F" transform="translate(764,698)"/>
<path d="M0 0 C0.928125 0.2784375 0.928125 0.2784375 1.875 0.5625 C4.04160178 1.23686176 4.04160178 1.23686176 6 0 C5.67 1.32 5.34 2.64 5 4 C3.68 4 2.36 4 1 4 C0.67 2.68 0.34 1.36 0 0 Z " fill="#2D3039" transform="translate(668,698)"/>
<path d="M0 0 C0.66 0.33 1.32 0.66 2 1 C0.02 3.97 0.02 3.97 -2 7 C-3.32 6.67 -4.64 6.34 -6 6 C-4.02 4.02 -2.04 2.04 0 0 Z " fill="#323A47" transform="translate(643,628)"/>
<path d="M0 0 C0.33 0 0.66 0 1 0 C1 5.94 1 11.88 1 18 C0.67 18 0.34 18 0 18 C0 12.06 0 6.12 0 0 Z " fill="#3C4D5D" transform="translate(512,590)"/>
<path d="M0 0 C2 4 2 4 1.3125 6.1875 C0 8 0 8 -3 9 C-2.01 6.03 -1.02 3.06 0 0 Z " fill="#2F3745" transform="translate(643,404)"/>
<path d="M0 0 C2 4 2 4 1.3125 6.1875 C0 8 0 8 -3 9 C-2.01 6.03 -1.02 3.06 0 0 Z " fill="#303743" transform="translate(650,388)"/>
<path d="M0 0 C2.6855594 2.6855594 3.06049974 5.37621328 4 9 C1 8 1 8 -0.25 5.625 C-1 3 -1 3 0 0 Z " fill="#2E3541" transform="translate(765,366)"/>
<path d="M0 0 C0.33 0 0.66 0 1 0 C1.25 5.625 1.25 5.625 -1 9 C-1.66 9 -2.32 9 -3 9 C-2.01 6.03 -1.02 3.06 0 0 Z " fill="#313641" transform="translate(664,356)"/>
<path d="M0 0 C0.33 0.66 0.66 1.32 1 2 C2.32 1.67 3.64 1.34 5 1 C5 1.66 5 2.32 5 3 C6.65 3 8.3 3 10 3 C10 3.33 10 3.66 10 4 C2.25 4.125 2.25 4.125 0 3 C0 2.01 0 1.02 0 0 Z " fill="#454C5A" transform="translate(683,725)"/>
<path d="M0 0 C3.24271506 0.5590888 4.93057424 1.4132178 7 4 C7 4.66 7 5.32 7 6 C3.63279613 4.60667426 2.0140476 3.0210714 0 0 Z " fill="#1A1E28" transform="translate(674,679)"/>
<path d="M0 0 C0.33 0.66 0.66 1.32 1 2 C0.06421005 4.35981813 -0.93347808 6.69631264 -2 9 C-2.33 9 -2.66 9 -3 9 C-2.4140625 2.84765625 -2.4140625 2.84765625 -2 1 C-1.34 0.67 -0.68 0.34 0 0 Z " fill="#343B47" transform="translate(592,668)"/>
<path d="M0 0 C1 3 1 3 -0.4375 6.1875 C-1.2109375 7.5796875 -1.2109375 7.5796875 -2 9 C-2.33 9 -2.66 9 -3 9 C-2.25 2.25 -2.25 2.25 0 0 Z " fill="#191D27" transform="translate(541,641)"/>
<path d="M0 0 C0.33 0.66 0.66 1.32 1 2 C0.06421005 4.35981813 -0.93347808 6.69631264 -2 9 C-2.33 9 -2.66 9 -3 9 C-3.36923077 3.46153846 -3.36923077 3.46153846 -1.5 1.125 C-1.005 0.75375 -0.51 0.3825 0 0 Z " fill="#2F3541" transform="translate(609,629)"/>
<path d="M0 0 C0.33 0.66 0.66 1.32 1 2 C0.06421005 4.35981813 -0.93347808 6.69631264 -2 9 C-2.33 9 -2.66 9 -3 9 C-3.36923077 3.46153846 -3.36923077 3.46153846 -1.5 1.125 C-1.005 0.75375 -0.51 0.3825 0 0 Z " fill="#2F3642" transform="translate(619,606)"/>
<path d="M0 0 C0.33 0.66 0.66 1.32 1 2 C0.06421005 4.35981813 -0.93347808 6.69631264 -2 9 C-2.33 9 -2.66 9 -3 9 C-2.4140625 2.84765625 -2.4140625 2.84765625 -2 1 C-1.34 0.67 -0.68 0.34 0 0 Z " fill="#2E3542" transform="translate(632,576)"/>
<path d="M0 0 C1.04449911 3.13349732 0.93423645 3.98968256 0 7 C-0.66 7 -1.32 7 -2 7 C-2.33 7.66 -2.66 8.32 -3 9 C-2.44271087 5.65626525 -1.64826111 2.96687001 0 0 Z " fill="#0C2038" transform="translate(543,549)"/>
<path d="M0 0 C0.33 0.66 0.66 1.32 1 2 C0.06421005 4.35981813 -0.93347808 6.69631264 -2 9 C-2.33 9 -2.66 9 -3 9 C-3.36923077 3.46153846 -3.36923077 3.46153846 -1.5 1.125 C-1.005 0.75375 -0.51 0.3825 0 0 Z " fill="#303644" transform="translate(647,542)"/>
<path d="M0 0 C0.33 0 0.66 0 1 0 C1.36923077 5.53846154 1.36923077 5.53846154 -0.5 7.875 C-1.2425 8.431875 -1.2425 8.431875 -2 9 C-2.33 8.34 -2.66 7.68 -3 7 C-2.06421005 4.64018187 -1.06652192 2.30368736 0 0 Z " fill="#2F3744" transform="translate(605,491)"/>
<path d="M0 0 C0.66 0 1.32 0 2 0 C1.01 2.97 0.02 5.94 -1 9 C-1.33 9 -1.66 9 -2 9 C-1.125 1.125 -1.125 1.125 0 0 Z " fill="#292F39" transform="translate(570,489)"/>
<path d="M0 0 C2.79872437 2.52788007 4.45773019 4.20411134 5 8 C2 7 2 7 0.8125 5.125 C0 3 0 3 0 0 Z " fill="#222834" transform="translate(789,424)"/>
<path d="M0 0 C1 3 1 3 -0.4375 6.1875 C-1.2109375 7.5796875 -1.2109375 7.5796875 -2 9 C-2.33 9 -2.66 9 -3 9 C-2.25 2.25 -2.25 2.25 0 0 Z " fill="#191D27" transform="translate(658,373)"/>
<path d="M0 0 C1.0625 1.875 1.0625 1.875 2 4 C1.67 4.66 1.34 5.32 1 6 C-0.32 5.67 -1.64 5.34 -3 5 C-1.125 1.125 -1.125 1.125 0 0 Z " fill="#28374A" transform="translate(490,341)"/>
<path d="M0 0 C0.33 0 0.66 0 1 0 C1 3.96 1 7.92 1 12 C0.67 12 0.34 12 0 12 C0 8.04 0 4.08 0 0 Z " fill="#344658" transform="translate(512,440)"/>
<path d="M0 0 C0.33 0 0.66 0 1 0 C1 3.3 1 6.6 1 10 C0.67 10 0.34 10 0 10 C0 6.7 0 3.4 0 0 Z " fill="#344758" transform="translate(512,429)"/>
<path d="M0 0 C0.99 0.99 1.98 1.98 3 3 C2.67 3.99 2.34 4.98 2 6 C0 3 0 3 0 0 Z " fill="#38485C" transform="translate(728,434)"/>
<path d="M0 0 C0.99 0.495 0.99 0.495 2 1 C1.67 2.65 1.34 4.3 1 6 C0.67 6 0.34 6 0 6 C0 4.02 0 2.04 0 0 Z " fill="#414F61" transform="translate(720,576)"/>
<path d="M0 0 C0.33 0 0.66 0 1 0 C1 2.31 1 4.62 1 7 C0.67 7 0.34 7 0 7 C0 4.69 0 2.38 0 0 Z " fill="#384A5B" transform="translate(512,521)"/>
<path d="M0 0 C0.66 0 1.32 0 2 0 C2 0.99 2 1.98 2 3 C1.34 3 0.68 3 0 3 C0 2.01 0 1.02 0 0 Z " fill="#3F4F61" transform="translate(696,665)"/>
<path d="M0 0 C0.99 0.33 1.98 0.66 3 1 C2.01 1.66 1.02 2.32 0 3 C0 2.01 0 1.02 0 0 Z " fill="#3C495B" transform="translate(616,648)"/>
<path d="M0 0 C1.98 0 3.96 0 6 0 C6 0.33 6 0.66 6 1 C4.02 1 2.04 1 0 1 C0 0.67 0 0.34 0 0 Z " fill="#455365" transform="translate(720,543)"/>
<path d="M0 0 C0.66 0.33 1.32 0.66 2 1 C1.01 1.99 0.02 2.98 -1 4 C-0.67 2.68 -0.34 1.36 0 0 Z " fill="#374759" transform="translate(737,456)"/>
<path d="M0 0 C0.33 0.99 0.66 1.98 1 3 C0.01 3.495 0.01 3.495 -1 4 C-0.67 2.68 -0.34 1.36 0 0 Z " fill="#37475A" transform="translate(721,416)"/>
<path d="M0 0 C0.99 0 1.98 0 3 0 C2.67 0.66 2.34 1.32 2 2 C1.34 2 0.68 2 0 2 C0 1.34 0 0.68 0 0 Z " fill="#3A495B" transform="translate(472,352)"/>
<path d="M0 0 C0.66 0.66 1.32 1.32 2 2 C1.34 2.66 0.68 3.32 0 4 C0 2.68 0 1.36 0 0 Z " fill="#3B4A5B" transform="translate(480,344)"/>
<path d="M0 0 C0.99 0.495 0.99 0.495 2 1 C1.67 1.66 1.34 2.32 1 3 C0.67 2.01 0.34 1.02 0 0 Z " fill="#47515F" transform="translate(760,698)"/>
<path d="M0 0 C0 3 0 3 0 3 Z " fill="#3A4858" transform="translate(196,668)"/>
<path d="M0 0 C0.66 0 1.32 0 2 0 C1.67 0.99 1.34 1.98 1 3 C0.67 2.01 0.34 1.02 0 0 Z " fill="#3C4C5F" transform="translate(584,531)"/>
<path d="M0 0 C0.66 0.33 1.32 0.66 2 1 C1.01 1 0.02 1 -1 1 C-0.67 0.67 -0.34 0.34 0 0 Z " fill="#3D4D5F" transform="translate(675,490)"/>
<path d="M0 0 C0.99 0.495 0.99 0.495 2 1 C1.67 1.66 1.34 2.32 1 3 C0.67 2.01 0.34 1.02 0 0 Z " fill="#35475A" transform="translate(702,419)"/>
<path d="M0 0 C0.99 1.485 0.99 1.485 2 3 C1.34 3 0.68 3 0 3 C0 2.01 0 1.02 0 0 Z " fill="#404E60" transform="translate(640,401)"/>
<path d="M0 0 C0.66 0 1.32 0 2 0 C2 0.66 2 1.32 2 2 C1.34 2 0.68 2 0 2 C0 1.34 0 0.68 0 0 Z " fill="#36485B" transform="translate(712,398)"/>
<path d="M0 0 C3 1 3 1 3 1 Z " fill="#4A5562" transform="translate(696,731)"/>
<path d="" fill="#3B4A5D" transform="translate(0,0)"/>
<path d="M0 0 C0.99 0.495 0.99 0.495 2 1 C1.01 1.495 1.01 1.495 0 2 C0 1.34 0 0.68 0 0 Z " fill="#3D495C" transform="translate(632,669)"/>
<path d="M0 0 C0.66 0.66 1.32 1.32 2 2 C1.34 2 0.68 2 0 2 C0 1.34 0 0.68 0 0 Z " fill="#425061" transform="translate(528,658)"/>
<path d="" fill="#415164" transform="translate(0,0)"/>
<path d="" fill="#3F4F5E" transform="translate(0,0)"/>
<path d="M0 0 C0.33 0.66 0.66 1.32 1 2 C0.34 1.67 -0.32 1.34 -1 1 C-0.67 0.67 -0.34 0.34 0 0 Z " fill="#3E4D5F" transform="translate(774,608)"/>
<path d="" fill="#3D4C5F" transform="translate(0,0)"/>
<path d="" fill="#3D4B5D" transform="translate(0,0)"/>
<path d="M0 0 C0.66 0.66 1.32 1.32 2 2 C1.34 2 0.68 2 0 2 C0 1.34 0 0.68 0 0 Z " fill="#3F4D5F" transform="translate(384,566)"/>
<path d="M0 0 C0.99 0.495 0.99 0.495 2 1 C1.01 1.495 1.01 1.495 0 2 C0 1.34 0 0.68 0 0 Z " fill="#3B495A" transform="translate(854,566)"/>
<path d="" fill="#3C4D60" transform="translate(0,0)"/>
<path d="M0 0 C3 1 3 1 3 1 Z " fill="#465365" transform="translate(691,543)"/>
<path d="M0 0 C0.66 0.66 1.32 1.32 2 2 C1.34 2 0.68 2 0 2 C0 1.34 0 0.68 0 0 Z " fill="#3B4959" transform="translate(363,542)"/>
<path d="M0 0 C3 1 3 1 3 1 Z " fill="#3C4B5D" transform="translate(680,491)"/>
<path d="M0 0 C0.99 0.495 0.99 0.495 2 1 C1.01 1.495 1.01 1.495 0 2 C0 1.34 0 0.68 0 0 Z " fill="#3F4E60" transform="translate(616,457)"/>
<path d="M0 0 C0.66 0.66 1.32 1.32 2 2 C1.34 2 0.68 2 0 2 C0 1.34 0 0.68 0 0 Z " fill="#39485A" transform="translate(440,394)"/>
<path d="M0 0 C3 1 3 1 3 1 Z " fill="#3E4C5C" transform="translate(470,360)"/>
<path d="" fill="#3E4C5D" transform="translate(0,0)"/>
<path d="" fill="#404E61" transform="translate(0,0)"/>
<path d="M0 0 C2 1 2 1 2 1 Z " fill="#45525F" transform="translate(664,701)"/>
<path d="" fill="#3F4E5F" transform="translate(0,0)"/>
<path d="M0 0 C2 1 2 1 2 1 Z " fill="#404D5E" transform="translate(659,694)"/>
<path d="" fill="#475161" transform="translate(0,0)"/>
<path d="" fill="#475365" transform="translate(0,0)"/>
<path d="M0 0 C2 1 2 1 2 1 Z " fill="#445060" transform="translate(520,680)"/>
<path d="M0 0 C2 1 2 1 2 1 Z " fill="#425160" transform="translate(520,672)"/>
<path d="M0 0 C2 1 2 1 2 1 Z " fill="#3D4B5D" transform="translate(633,671)"/>
<path d="M0 0 C2 1 2 1 2 1 Z " fill="#424F5F" transform="translate(776,659)"/>
<path d="" fill="#434F62" transform="translate(0,0)"/>
<path d="M0 0 C2 1 2 1 2 1 Z " fill="#405162" transform="translate(776,657)"/>
<path d="" fill="#414F60" transform="translate(0,0)"/>
<path d="" fill="#3B4D5D" transform="translate(0,0)"/>
<path d="" fill="#404D5E" transform="translate(0,0)"/>
<path d="" fill="#404F5F" transform="translate(0,0)"/>
<path d="" fill="#435062" transform="translate(0,0)"/>
<path d="" fill="#435161" transform="translate(0,0)"/>
<path d="M0 0 C2 1 2 1 2 1 Z " fill="#445162" transform="translate(760,600)"/>
<path d="M0 0 C2 1 2 1 2 1 Z " fill="#44515F" transform="translate(848,599)"/>
<path d="M0 0 C2 1 2 1 2 1 Z " fill="#464E5F" transform="translate(844,599)"/>
<path d="M0 0 C2 1 2 1 2 1 Z " fill="#445262" transform="translate(816,599)"/>
<path d="M0 0 C2 1 2 1 2 1 Z " fill="#425060" transform="translate(800,599)"/>
<path d="" fill="#404C5C" transform="translate(0,0)"/>
<path d="" fill="#3F4D5E" transform="translate(0,0)"/>
<path d="" fill="#394658" transform="translate(0,0)"/>
<path d="M0 0 C2 1 2 1 2 1 Z " fill="#425264" transform="translate(752,543)"/>
<path d="M0 0 C2 1 2 1 2 1 Z " fill="#455566" transform="translate(736,543)"/>
<path d="M0 0 C2 1 2 1 2 1 Z " fill="#445366" transform="translate(712,543)"/>
<path d="M0 0 C2 1 2 1 2 1 Z " fill="#455367" transform="translate(704,543)"/>
<path d="M0 0 C2 1 2 1 2 1 Z " fill="#455466" transform="translate(696,543)"/>
<path d="M0 0 C2 1 2 1 2 1 Z " fill="#465466" transform="translate(688,543)"/>
<path d="M0 0 C2 1 2 1 2 1 Z " fill="#455366" transform="translate(680,543)"/>
<path d="" fill="#374556" transform="translate(0,0)"/>
<path d="" fill="#3F4A5B" transform="translate(0,0)"/>
<path d="M0 0 C2 1 2 1 2 1 Z " fill="#3C4C5D" transform="translate(743,491)"/>
<path d="M0 0 C2 1 2 1 2 1 Z " fill="#3F4D5F" transform="translate(711,491)"/>
<path d="M0 0 C2 1 2 1 2 1 Z " fill="#3E4D5E" transform="translate(705,491)"/>
<path d="" fill="#3C4B5F" transform="translate(0,0)"/>
<path d="" fill="#3B495B" transform="translate(0,0)"/>
<path d="" fill="#364456" transform="translate(0,0)"/>
<path d="" fill="#36475B" transform="translate(0,0)"/>
<path d="" fill="#394959" transform="translate(0,0)"/>
<path d="" fill="#394758" transform="translate(0,0)"/>
<path d="" fill="#37485A" transform="translate(0,0)"/>
<path d="" fill="#3A4858" transform="translate(0,0)"/>
<path d="M0 0 C2 1 2 1 2 1 Z " fill="#3F4C5C" transform="translate(632,424)"/>
<path d="" fill="#34465A" transform="translate(0,0)"/>
<path d="" fill="#38485C" transform="translate(0,0)"/>
<path d="" fill="#404C5C" transform="translate(0,0)"/>
<path d="" fill="#364456" transform="translate(0,0)"/>
<path d="" fill="#3D4E5F" transform="translate(0,0)"/>
<path d="M0 0 C2 1 2 1 2 1 Z " fill="#435260" transform="translate(672,331)"/>
<path d="M0 0 C2 1 2 1 2 1 Z " fill="#444E5B" transform="translate(195,322)"/>
<path d="M0 0 C2 1 2 1 2 1 Z " fill="#3C4858" transform="translate(510,320)"/>
<path d="M0 0 C2 1 2 1 2 1 Z " fill="#434F5E" transform="translate(259,320)"/>
<path d="" fill="#393A3A" transform="translate(0,0)"/>
<path d="" fill="#4D5864" transform="translate(0,0)"/>
<path d="" fill="#485161" transform="translate(0,0)"/>
<path d="" fill="#495663" transform="translate(0,0)"/>
<path d="" fill="#4A5665" transform="translate(0,0)"/>
<path d="" fill="#495664" transform="translate(0,0)"/>
<path d="" fill="#425262" transform="translate(0,0)"/>
<path d="" fill="#465464" transform="translate(0,0)"/>
<path d="" fill="#495564" transform="translate(0,0)"/>
<path d="" fill="#3F4F5D" transform="translate(0,0)"/>
<path d="" fill="#404F5C" transform="translate(0,0)"/>
<path d="" fill="#45505C" transform="translate(0,0)"/>
<path d="" fill="#425060" transform="translate(0,0)"/>
<path d="" fill="#43515F" transform="translate(0,0)"/>
<path d="" fill="#475460" transform="translate(0,0)"/>
<path d="" fill="#485562" transform="translate(0,0)"/>
<path d="" fill="#424F5F" transform="translate(0,0)"/>
<path d="" fill="#3B4957" transform="translate(0,0)"/>
<path d="" fill="#465262" transform="translate(0,0)"/>
<path d="" fill="#44505E" transform="translate(0,0)"/>
<path d="" fill="#39485A" transform="translate(0,0)"/>
<path d="" fill="#414F5F" transform="translate(0,0)"/>
<path d="" fill="#3C4A5D" transform="translate(0,0)"/>
<path d="" fill="#444F5E" transform="translate(0,0)"/>
<path d="" fill="#475563" transform="translate(0,0)"/>
<path d="" fill="#404A5B" transform="translate(0,0)"/>
<path d="" fill="#425162" transform="translate(0,0)"/>
<path d="" fill="#415061" transform="translate(0,0)"/>
<path d="" fill="#435060" transform="translate(0,0)"/>
<path d="" fill="#455163" transform="translate(0,0)"/>
<path d="" fill="#424F61" transform="translate(0,0)"/>
<path d="" fill="#394857" transform="translate(0,0)"/>
<path d="" fill="#435260" transform="translate(0,0)"/>
<path d="" fill="#414D5D" transform="translate(0,0)"/>
<path d="" fill="#43505F" transform="translate(0,0)"/>
<path d="" fill="#465162" transform="translate(0,0)"/>
<path d="" fill="#414F60" transform="translate(0,0)"/>
<path d="" fill="#415161" transform="translate(0,0)"/>
<path d="" fill="#3D495C" transform="translate(0,0)"/>
<path d="" fill="#40505F" transform="translate(0,0)"/>
<path d="" fill="#414E61" transform="translate(0,0)"/>
<path d="" fill="#404F5E" transform="translate(0,0)"/>
<path d="" fill="#445363" transform="translate(0,0)"/>
<path d="" fill="#3E4F5D" transform="translate(0,0)"/>
<path d="" fill="#455364" transform="translate(0,0)"/>
<path d="" fill="#444F5F" transform="translate(0,0)"/>
<path d="" fill="#415161" transform="translate(0,0)"/>
<path d="" fill="#444F5E" transform="translate(0,0)"/>
<path d="" fill="#425263" transform="translate(0,0)"/>
<path d="" fill="#455361" transform="translate(0,0)"/>
<path d="" fill="#435563" transform="translate(0,0)"/>
<path d="" fill="#405262" transform="translate(0,0)"/>
<path d="" fill="#3F4B5C" transform="translate(0,0)"/>
<path d="" fill="#455560" transform="translate(0,0)"/>
<path d="" fill="#3B4A59" transform="translate(0,0)"/>
<path d="" fill="#415163" transform="translate(0,0)"/>
<path d="" fill="#3B495A" transform="translate(0,0)"/>
<path d="" fill="#405162" transform="translate(0,0)"/>
<path d="" fill="#434F61" transform="translate(0,0)"/>
<path d="" fill="#425264" transform="translate(0,0)"/>
<path d="" fill="#435560" transform="translate(0,0)"/>
<path d="" fill="#42535F" transform="translate(0,0)"/>
<path d="" fill="#434F5D" transform="translate(0,0)"/>
<path d="" fill="#435164" transform="translate(0,0)"/>
<path d="" fill="#424E5D" transform="translate(0,0)"/>
<path d="" fill="#3E5060" transform="translate(0,0)"/>
<path d="" fill="#415262" transform="translate(0,0)"/>
<path d="" fill="#445564" transform="translate(0,0)"/>
<path d="" fill="#424D5C" transform="translate(0,0)"/>
<path d="" fill="#3D4A5C" transform="translate(0,0)"/>
<path d="" fill="#3F4A5B" transform="translate(0,0)"/>
<path d="" fill="#3A4856" transform="translate(0,0)"/>
<path d="" fill="#3C4858" transform="translate(0,0)"/>
<path d="" fill="#414F61" transform="translate(0,0)"/>
<path d="" fill="#3C4A5C" transform="translate(0,0)"/>
<path d="" fill="#3E4C5C" transform="translate(0,0)"/>
<path d="" fill="#3F4F5F" transform="translate(0,0)"/>
<path d="" fill="#47525C" transform="translate(0,0)"/>
<path d="" fill="#45515D" transform="translate(0,0)"/>
<path d="" fill="#405062" transform="translate(0,0)"/>
<path d="" fill="#46535C" transform="translate(0,0)"/>
<path d="" fill="#415063" transform="translate(0,0)"/>
<path d="" fill="#47525D" transform="translate(0,0)"/>
<path d="" fill="#374757" transform="translate(0,0)"/>
<path d="" fill="#414D5F" transform="translate(0,0)"/>
<path d="" fill="#39465A" transform="translate(0,0)"/>
<path d="" fill="#46505A" transform="translate(0,0)"/>
<path d="" fill="#415061" transform="translate(0,0)"/>
<path d="" fill="#3C4C5B" transform="translate(0,0)"/>
<path d="" fill="#3B4A5D" transform="translate(0,0)"/>
<path d="" fill="#3B4A5C" transform="translate(0,0)"/>
<path d="" fill="#3C4A5B" transform="translate(0,0)"/>
<path d="" fill="#3D4A5A" transform="translate(0,0)"/>
<path d="" fill="#414E5D" transform="translate(0,0)"/>
<path d="" fill="#434F5F" transform="translate(0,0)"/>
<path d="" fill="#425161" transform="translate(0,0)"/>
<path d="" fill="#3F4D5F" transform="translate(0,0)"/>
<path d="" fill="#3E4C5D" transform="translate(0,0)"/>
<path d="" fill="#404D5D" transform="translate(0,0)"/>
<path d="" fill="#424F5F" transform="translate(0,0)"/>
<path d="" fill="#465363" transform="translate(0,0)"/>
<path d="" fill="#374957" transform="translate(0,0)"/>
<path d="" fill="#424E5F" transform="translate(0,0)"/>
<path d="" fill="#424E5F" transform="translate(0,0)"/>
<path d="" fill="#3D4B5D" transform="translate(0,0)"/>
<path d="" fill="#3C4B5A" transform="translate(0,0)"/>
<path d="" fill="#414D5E" transform="translate(0,0)"/>
<path d="" fill="#384856" transform="translate(0,0)"/>
<path d="" fill="#435163" transform="translate(0,0)"/>
<path d="" fill="#425162" transform="translate(0,0)"/>
<path d="" fill="#444F60" transform="translate(0,0)"/>
<path d="" fill="#424F63" transform="translate(0,0)"/>
<path d="" fill="#3F5061" transform="translate(0,0)"/>
<path d="" fill="#3A4658" transform="translate(0,0)"/>
<path d="" fill="#425063" transform="translate(0,0)"/>
<path d="" fill="#455363" transform="translate(0,0)"/>
<path d="" fill="#3B4B5F" transform="translate(0,0)"/>
<path d="" fill="#475563" transform="translate(0,0)"/>
<path d="" fill="#445160" transform="translate(0,0)"/>
<path d="" fill="#374857" transform="translate(0,0)"/>
<path d="" fill="#3C4A5C" transform="translate(0,0)"/>
<path d="" fill="#425162" transform="translate(0,0)"/>
<path d="" fill="#414E62" transform="translate(0,0)"/>
<path d="" fill="#404D60" transform="translate(0,0)"/>
<path d="" fill="#394757" transform="translate(0,0)"/>
<path d="" fill="#3D5261" transform="translate(0,0)"/>
<path d="" fill="#41515F" transform="translate(0,0)"/>
<path d="" fill="#445460" transform="translate(0,0)"/>
<path d="" fill="#405060" transform="translate(0,0)"/>
<path d="" fill="#384756" transform="translate(0,0)"/>
<path d="" fill="#404D5E" transform="translate(0,0)"/>
<path d="" fill="#3D4C5E" transform="translate(0,0)"/>
<path d="" fill="#424F61" transform="translate(0,0)"/>
<path d="" fill="#404F5F" transform="translate(0,0)"/>
<path d="" fill="#414E5D" transform="translate(0,0)"/>
<path d="" fill="#424F62" transform="translate(0,0)"/>
<path d="" fill="#435260" transform="translate(0,0)"/>
<path d="" fill="#3D4D60" transform="translate(0,0)"/>
<path d="" fill="#3A4256" transform="translate(0,0)"/>
<path d="" fill="#3F4C5E" transform="translate(0,0)"/>
<path d="" fill="#3C485C" transform="translate(0,0)"/>
<path d="" fill="#424E5F" transform="translate(0,0)"/>
<path d="" fill="#3C4D5C" transform="translate(0,0)"/>
<path d="" fill="#384657" transform="translate(0,0)"/>
<path d="" fill="#3B4B5F" transform="translate(0,0)"/>
<path d="" fill="#434F63" transform="translate(0,0)"/>
<path d="" fill="#46505C" transform="translate(0,0)"/>
<path d="" fill="#49515F" transform="translate(0,0)"/>
<path d="" fill="#424B5B" transform="translate(0,0)"/>
<path d="" fill="#475061" transform="translate(0,0)"/>
<path d="" fill="#455161" transform="translate(0,0)"/>
<path d="" fill="#454F60" transform="translate(0,0)"/>
<path d="" fill="#475361" transform="translate(0,0)"/>
<path d="" fill="#445260" transform="translate(0,0)"/>
<path d="" fill="#465361" transform="translate(0,0)"/>
<path d="" fill="#455162" transform="translate(0,0)"/>
<path d="" fill="#445261" transform="translate(0,0)"/>
<path d="" fill="#445162" transform="translate(0,0)"/>
<path d="" fill="#424D5C" transform="translate(0,0)"/>
<path d="" fill="#3E4D5C" transform="translate(0,0)"/>
<path d="" fill="#384656" transform="translate(0,0)"/>
<path d="" fill="#42505F" transform="translate(0,0)"/>
<path d="" fill="#384558" transform="translate(0,0)"/>
<path d="" fill="#3B4C61" transform="translate(0,0)"/>
<path d="" fill="#3E4C5D" transform="translate(0,0)"/>
<path d="" fill="#3D4B5E" transform="translate(0,0)"/>
<path d="" fill="#3E4C5B" transform="translate(0,0)"/>
<path d="" fill="#3B485A" transform="translate(0,0)"/>
<path d="" fill="#3D4B5B" transform="translate(0,0)"/>
<path d="" fill="#3D4E61" transform="translate(0,0)"/>
<path d="" fill="#3B4B5D" transform="translate(0,0)"/>
<path d="" fill="#404D5F" transform="translate(0,0)"/>
<path d="" fill="#3C4A5D" transform="translate(0,0)"/>
<path d="" fill="#37455A" transform="translate(0,0)"/>
<path d="" fill="#3E4B5E" transform="translate(0,0)"/>
<path d="" fill="#3B4B5D" transform="translate(0,0)"/>
<path d="" fill="#3B495A" transform="translate(0,0)"/>
<path d="" fill="#3C4B58" transform="translate(0,0)"/>
<path d="" fill="#3E4C5D" transform="translate(0,0)"/>
<path d="" fill="#3F4E60" transform="translate(0,0)"/>
<path d="" fill="#384757" transform="translate(0,0)"/>
<path d="" fill="#3E4D5F" transform="translate(0,0)"/>
<path d="" fill="#3B495E" transform="translate(0,0)"/>
<path d="" fill="#3A4A59" transform="translate(0,0)"/>
<path d="" fill="#3E4B5C" transform="translate(0,0)"/>
<path d="" fill="#41505F" transform="translate(0,0)"/>
<path d="" fill="#3C4C5E" transform="translate(0,0)"/>
<path d="" fill="#3D4A5B" transform="translate(0,0)"/>
<path d="" fill="#3D4D5F" transform="translate(0,0)"/>
<path d="" fill="#3D4C5D" transform="translate(0,0)"/>
<path d="" fill="#3C495A" transform="translate(0,0)"/>
<path d="" fill="#3C4959" transform="translate(0,0)"/>
<path d="" fill="#3C4A5C" transform="translate(0,0)"/>
<path d="" fill="#384857" transform="translate(0,0)"/>
<path d="" fill="#3D4B5E" transform="translate(0,0)"/>
<path d="" fill="#3D4A5A" transform="translate(0,0)"/>
<path d="" fill="#3F4D5E" transform="translate(0,0)"/>
<path d="" fill="#3F4E5F" transform="translate(0,0)"/>
<path d="" fill="#3D4C5C" transform="translate(0,0)"/>
<path d="" fill="#394656" transform="translate(0,0)"/>
<path d="" fill="#3C4D5D" transform="translate(0,0)"/>
<path d="" fill="#3C4B5F" transform="translate(0,0)"/>
<path d="" fill="#3A4757" transform="translate(0,0)"/>
<path d="" fill="#3C495A" transform="translate(0,0)"/>
<path d="" fill="#374252" transform="translate(0,0)"/>
<path d="" fill="#374558" transform="translate(0,0)"/>
<path d="" fill="#364054" transform="translate(0,0)"/>
<path d="" fill="#384658" transform="translate(0,0)"/>
<path d="" fill="#435062" transform="translate(0,0)"/>
<path d="" fill="#404D60" transform="translate(0,0)"/>
<path d="" fill="#415063" transform="translate(0,0)"/>
<path d="" fill="#405064" transform="translate(0,0)"/>
<path d="" fill="#435164" transform="translate(0,0)"/>
<path d="" fill="#465466" transform="translate(0,0)"/>
<path d="" fill="#475366" transform="translate(0,0)"/>
<path d="" fill="#465466" transform="translate(0,0)"/>
<path d="" fill="#465468" transform="translate(0,0)"/>
<path d="" fill="#455568" transform="translate(0,0)"/>
<path d="" fill="#475365" transform="translate(0,0)"/>
<path d="" fill="#475365" transform="translate(0,0)"/>
<path d="" fill="#435364" transform="translate(0,0)"/>
<path d="" fill="#425364" transform="translate(0,0)"/>
<path d="" fill="#425163" transform="translate(0,0)"/>
<path d="" fill="#435064" transform="translate(0,0)"/>
<path d="" fill="#405164" transform="translate(0,0)"/>
<path d="" fill="#394354" transform="translate(0,0)"/>
<path d="" fill="#3A475A" transform="translate(0,0)"/>
<path d="" fill="#3C4B5C" transform="translate(0,0)"/>
<path d="" fill="#3B485A" transform="translate(0,0)"/>
<path d="" fill="#394B5A" transform="translate(0,0)"/>
<path d="" fill="#3B4956" transform="translate(0,0)"/>
<path d="" fill="#374659" transform="translate(0,0)"/>
<path d="" fill="#3B485B" transform="translate(0,0)"/>
<path d="" fill="#364353" transform="translate(0,0)"/>
<path d="" fill="#3D4B5A" transform="translate(0,0)"/>
<path d="" fill="#3E4C5B" transform="translate(0,0)"/>
<path d="" fill="#3B4858" transform="translate(0,0)"/>
<path d="" fill="#384758" transform="translate(0,0)"/>
<path d="" fill="#3C4958" transform="translate(0,0)"/>
<path d="" fill="#3E4E60" transform="translate(0,0)"/>
<path d="" fill="#3C4B5D" transform="translate(0,0)"/>
<path d="" fill="#384B5E" transform="translate(0,0)"/>
<path d="" fill="#3D4C60" transform="translate(0,0)"/>
<path d="" fill="#3B4757" transform="translate(0,0)"/>
<path d="" fill="#3A4859" transform="translate(0,0)"/>
<path d="" fill="#384558" transform="translate(0,0)"/>
<path d="" fill="#38485A" transform="translate(0,0)"/>
<path d="" fill="#3D4D60" transform="translate(0,0)"/>
<path d="" fill="#374756" transform="translate(0,0)"/>
<path d="" fill="#394556" transform="translate(0,0)"/>
<path d="" fill="#3A445B" transform="translate(0,0)"/>
<path d="" fill="#394454" transform="translate(0,0)"/>
<path d="" fill="#384657" transform="translate(0,0)"/>
<path d="" fill="#3D4E5F" transform="translate(0,0)"/>
<path d="" fill="#39495A" transform="translate(0,0)"/>
<path d="" fill="#3B495B" transform="translate(0,0)"/>
<path d="" fill="#3D4C5E" transform="translate(0,0)"/>
<path d="" fill="#3C4957" transform="translate(0,0)"/>
<path d="" fill="#3A485B" transform="translate(0,0)"/>
<path d="" fill="#3E4955" transform="translate(0,0)"/>
<path d="" fill="#3B4B5C" transform="translate(0,0)"/>
<path d="" fill="#3D4D5D" transform="translate(0,0)"/>
<path d="" fill="#3E4D60" transform="translate(0,0)"/>
<path d="" fill="#3D4D5F" transform="translate(0,0)"/>
<path d="" fill="#3C4E5C" transform="translate(0,0)"/>
<path d="" fill="#3D4C5E" transform="translate(0,0)"/>
<path d="" fill="#404F60" transform="translate(0,0)"/>
<path d="" fill="#3D4C5C" transform="translate(0,0)"/>
<path d="" fill="#3F4C5D" transform="translate(0,0)"/>
<path d="" fill="#3D4D5E" transform="translate(0,0)"/>
<path d="" fill="#3C4D5D" transform="translate(0,0)"/>
<path d="" fill="#3D4C5F" transform="translate(0,0)"/>
<path d="" fill="#3D4E60" transform="translate(0,0)"/>
<path d="" fill="#3A495D" transform="translate(0,0)"/>
<path d="" fill="#3B475A" transform="translate(0,0)"/>
<path d="" fill="#364557" transform="translate(0,0)"/>
<path d="" fill="#3E4F60" transform="translate(0,0)"/>
<path d="" fill="#384959" transform="translate(0,0)"/>
<path d="" fill="#3A4958" transform="translate(0,0)"/>
<path d="" fill="#3B4C5E" transform="translate(0,0)"/>
<path d="" fill="#3A475B" transform="translate(0,0)"/>
<path d="" fill="#374656" transform="translate(0,0)"/>
<path d="" fill="#3B495A" transform="translate(0,0)"/>
<path d="" fill="#38485A" transform="translate(0,0)"/>
<path d="" fill="#3B4759" transform="translate(0,0)"/>
<path d="" fill="#3D4859" transform="translate(0,0)"/>
<path d="" fill="#384758" transform="translate(0,0)"/>
<path d="" fill="#394657" transform="translate(0,0)"/>
<path d="" fill="#36455A" transform="translate(0,0)"/>
<path d="" fill="#364757" transform="translate(0,0)"/>
<path d="" fill="#3B495D" transform="translate(0,0)"/>
<path d="" fill="#404C5F" transform="translate(0,0)"/>
<path d="" fill="#3C485D" transform="translate(0,0)"/>
<path d="" fill="#3A495B" transform="translate(0,0)"/>
<path d="" fill="#3D485A" transform="translate(0,0)"/>
<path d="" fill="#3B4A5D" transform="translate(0,0)"/>
<path d="" fill="#3B4758" transform="translate(0,0)"/>
<path d="" fill="#3B4C5C" transform="translate(0,0)"/>
<path d="" fill="#3A4A5C" transform="translate(0,0)"/>
<path d="" fill="#394557" transform="translate(0,0)"/>
<path d="" fill="#3A4757" transform="translate(0,0)"/>
<path d="" fill="#384452" transform="translate(0,0)"/>
<path d="" fill="#394B5D" transform="translate(0,0)"/>
<path d="" fill="#3C4A5E" transform="translate(0,0)"/>
<path d="" fill="#35475C" transform="translate(0,0)"/>
<path d="" fill="#344456" transform="translate(0,0)"/>
<path d="" fill="#384959" transform="translate(0,0)"/>
<path d="" fill="#354555" transform="translate(0,0)"/>
<path d="" fill="#39485A" transform="translate(0,0)"/>
<path d="" fill="#37495A" transform="translate(0,0)"/>
<path d="" fill="#3E4E5F" transform="translate(0,0)"/>
<path d="" fill="#354657" transform="translate(0,0)"/>
<path d="" fill="#3E4D5F" transform="translate(0,0)"/>
<path d="" fill="#3B485A" transform="translate(0,0)"/>
<path d="" fill="#3B4B5D" transform="translate(0,0)"/>
<path d="" fill="#3C475B" transform="translate(0,0)"/>
<path d="" fill="#3C4A5D" transform="translate(0,0)"/>
<path d="" fill="#3B4A5C" transform="translate(0,0)"/>
<path d="" fill="#374658" transform="translate(0,0)"/>
<path d="" fill="#37495A" transform="translate(0,0)"/>
<path d="" fill="#3A485A" transform="translate(0,0)"/>
<path d="" fill="#3B495A" transform="translate(0,0)"/>
<path d="" fill="#39495D" transform="translate(0,0)"/>
<path d="" fill="#374557" transform="translate(0,0)"/>
<path d="" fill="#36485A" transform="translate(0,0)"/>
<path d="" fill="#354457" transform="translate(0,0)"/>
<path d="" fill="#38495A" transform="translate(0,0)"/>
<path d="" fill="#37475A" transform="translate(0,0)"/>
<path d="" fill="#39485A" transform="translate(0,0)"/>
<path d="" fill="#3A495C" transform="translate(0,0)"/>
<path d="" fill="#374B5D" transform="translate(0,0)"/>
<path d="" fill="#344559" transform="translate(0,0)"/>
<path d="" fill="#394458" transform="translate(0,0)"/>
<path d="" fill="#374456" transform="translate(0,0)"/>
<path d="" fill="#415061" transform="translate(0,0)"/>
<path d="" fill="#38495A" transform="translate(0,0)"/>
<path d="" fill="#38495D" transform="translate(0,0)"/>
<path d="" fill="#314152" transform="translate(0,0)"/>
<path d="" fill="#404D5F" transform="translate(0,0)"/>
<path d="" fill="#38495B" transform="translate(0,0)"/>
<path d="" fill="#425061" transform="translate(0,0)"/>
<path d="" fill="#364557" transform="translate(0,0)"/>
<path d="" fill="#334254" transform="translate(0,0)"/>
<path d="" fill="#364556" transform="translate(0,0)"/>
<path d="" fill="#35455A" transform="translate(0,0)"/>
<path d="" fill="#3A495A" transform="translate(0,0)"/>
<path d="" fill="#394A5B" transform="translate(0,0)"/>
<path d="" fill="#3B4A59" transform="translate(0,0)"/>
<path d="" fill="#394C5B" transform="translate(0,0)"/>
<path d="" fill="#39485B" transform="translate(0,0)"/>
<path d="" fill="#3A4A5A" transform="translate(0,0)"/>
<path d="" fill="#39495B" transform="translate(0,0)"/>
<path d="" fill="#344659" transform="translate(0,0)"/>
<path d="" fill="#36485A" transform="translate(0,0)"/>
<path d="" fill="#3A4A5B" transform="translate(0,0)"/>
<path d="" fill="#374959" transform="translate(0,0)"/>
<path d="" fill="#334556" transform="translate(0,0)"/>
<path d="" fill="#3B4B60" transform="translate(0,0)"/>
<path d="" fill="#38485B" transform="translate(0,0)"/>
<path d="" fill="#374A5D" transform="translate(0,0)"/>
<path d="" fill="#3E5061" transform="translate(0,0)"/>
<path d="" fill="#38475B" transform="translate(0,0)"/>
<path d="" fill="#404F60" transform="translate(0,0)"/>
<path d="" fill="#39485B" transform="translate(0,0)"/>
<path d="" fill="#404958" transform="translate(0,0)"/>
<path d="" fill="#32465B" transform="translate(0,0)"/>
<path d="" fill="#364559" transform="translate(0,0)"/>
<path d="" fill="#3A485A" transform="translate(0,0)"/>
<path d="" fill="#374654" transform="translate(0,0)"/>
<path d="" fill="#35475F" transform="translate(0,0)"/>
<path d="" fill="#35495B" transform="translate(0,0)"/>
<path d="" fill="#36495D" transform="translate(0,0)"/>
<path d="" fill="#39475C" transform="translate(0,0)"/>
<path d="" fill="#374053" transform="translate(0,0)"/>
<path d="" fill="#36485B" transform="translate(0,0)"/>
<path d="" fill="#36475B" transform="translate(0,0)"/>
<path d="" fill="#3D4C5C" transform="translate(0,0)"/>
<path d="" fill="#394B59" transform="translate(0,0)"/>
<path d="" fill="#374657" transform="translate(0,0)"/>
<path d="" fill="#374558" transform="translate(0,0)"/>
<path d="" fill="#364357" transform="translate(0,0)"/>
<path d="" fill="#354659" transform="translate(0,0)"/>
<path d="" fill="#3B485A" transform="translate(0,0)"/>
<path d="" fill="#35475B" transform="translate(0,0)"/>
<path d="" fill="#36465A" transform="translate(0,0)"/>
<path d="" fill="#354455" transform="translate(0,0)"/>
<path d="" fill="#36475A" transform="translate(0,0)"/>
<path d="" fill="#364457" transform="translate(0,0)"/>
<path d="" fill="#374758" transform="translate(0,0)"/>
<path d="" fill="#344153" transform="translate(0,0)"/>
<path d="" fill="#364658" transform="translate(0,0)"/>
<path d="" fill="#3D4D5B" transform="translate(0,0)"/>
<path d="" fill="#364357" transform="translate(0,0)"/>
<path d="" fill="#3B475A" transform="translate(0,0)"/>
<path d="" fill="#435161" transform="translate(0,0)"/>
<path d="" fill="#3A4857" transform="translate(0,0)"/>
<path d="" fill="#3A4656" transform="translate(0,0)"/>
<path d="" fill="#384757" transform="translate(0,0)"/>
<path d="" fill="#3F4D5E" transform="translate(0,0)"/>
<path d="" fill="#3A4756" transform="translate(0,0)"/>
<path d="" fill="#394756" transform="translate(0,0)"/>
<path d="" fill="#3C485B" transform="translate(0,0)"/>
<path d="" fill="#3A495B" transform="translate(0,0)"/>
<path d="" fill="#334056" transform="translate(0,0)"/>
<path d="" fill="#3B485C" transform="translate(0,0)"/>
<path d="" fill="#39485A" transform="translate(0,0)"/>
<path d="" fill="#3B4856" transform="translate(0,0)"/>
<path d="" fill="#434F61" transform="translate(0,0)"/>
<path d="" fill="#424E5F" transform="translate(0,0)"/>
<path d="" fill="#3B4B5C" transform="translate(0,0)"/>
<path d="" fill="#455060" transform="translate(0,0)"/>
<path d="" fill="#414D5B" transform="translate(0,0)"/>
<path d="" fill="#44505D" transform="translate(0,0)"/>
<path d="" fill="#424F61" transform="translate(0,0)"/>
<path d="" fill="#46515D" transform="translate(0,0)"/>
<path d="" fill="#465360" transform="translate(0,0)"/>
<path d="" fill="#475260" transform="translate(0,0)"/>
<path d="" fill="#485460" transform="translate(0,0)"/>
<path d="" fill="#3E4B5D" transform="translate(0,0)"/>
<path d="" fill="#41515F" transform="translate(0,0)"/>
<path d="" fill="#47525D" transform="translate(0,0)"/>
</svg>
