<?xml version="1.0" encoding="utf-8"?>
<!-- Generator: Adobe Illustrator 27.5.0, SVG Export Plug-In . SVG Version: 6.00 Build 0)  -->
<svg version="1.1" xmlns="http://www.w3.org/2000/svg" xmlns:xlink="http://www.w3.org/1999/xlink" x="0px" y="0px"
	 viewBox="0 0 2200 2200" style="enable-background:new 0 0 2200 2200;" xml:space="preserve">
<g id="background">
	<rect style="fill:#FFFFFF;" width="500" height="500"/>
</g>
<g id="Objects">
		<g>
	
		
	
	</g>


	<g>
		<path d="M2003.266,916.927h-6.948c7.291,11.162,16.064,20.856,26.897,28.153c-10.833,7.405-19.949,17.214-27.011,28.153h7.063
			c6.954-11.744,17.779-20.976,29.295-28.153C2020.936,938.011,2010.562,928.442,2003.266,916.927z"/>
		<g>
			<path d="M167.439,945.079c11.624,7.068,21.998,16.637,29.295,28.153h6.949c-7.291-11.162-16.064-20.856-26.897-28.153
				c10.833-7.405,19.949-17.214,27.011-28.153h-7.063C189.78,928.671,178.955,937.903,167.439,945.079z"/>


			<g>
				<path d="M1210.423,945.08c0,1.537,1.246,2.784,2.784,2.784h789.411c-9.153,7.006-16.954,15.749-23.165,25.369h7.063
					c6.954-11.744,17.779-20.976,29.289-28.153c-11.624-7.068-21.993-16.637-29.289-28.153h-6.948
					c6.397,9.797,13.943,18.462,23.012,25.369h-789.372C1211.669,942.296,1210.423,943.542,1210.423,945.08z"/>


				<path d="M220.548,916.927h-7.063c-6.954,11.744-17.779,20.976-29.289,28.153c11.624,7.068,21.993,16.637,29.289,28.153h6.949
					c-6.397-9.797-13.943-18.462-23.012-25.369h789.372c1.538,0,2.784-1.246,2.784-2.784c0-1.537-1.246-2.784-2.784-2.784H197.383
					C206.536,935.29,214.337,926.547,220.548,916.927z"/>

				<path d="M1052.309,969.376l4.057,3.182c0.13-0.166,13.207-16.667,30.102-25.176l4.492-2.262l-4.46-2.326
					c-17.048-8.89-30.015-25.044-30.144-25.206l-4.037,3.207c0.51,0.642,11.775,14.692,27.674,24.254
					C1064.178,954.372,1052.824,968.719,1052.309,969.376z"/>


				<path d="M1113.5,942.794l-4.46,2.326l4.492,2.262c16.896,8.509,29.972,25.01,30.102,25.176l4.057-3.182
					c-0.515-0.657-11.869-15.004-27.684-24.327c15.899-9.562,27.163-23.612,27.674-24.254l-4.037-3.207
					C1143.515,917.75,1130.548,933.904,1113.5,942.794z"/>


				<path d="M1028.752,969.376l4.057,3.182c0.13-0.166,13.207-16.667,30.102-25.176l4.493-2.263l-4.46-2.326
					c-17.049-8.89-30.016-25.044-30.145-25.206l-4.037,3.207c0.51,0.642,11.775,14.692,27.675,24.254
					C1040.621,954.372,1029.267,968.719,1028.752,969.376z"/>


				<path d="M1171.238,920.795l-4.037-3.207c-0.129,0.162-13.096,16.316-30.145,25.206l-4.46,2.326l4.493,2.263
					c16.896,8.508,29.972,25.01,30.102,25.176l4.057-3.182c-0.515-0.657-11.869-15.004-27.684-24.327
					C1159.463,935.488,1170.728,921.438,1171.238,920.795z"/>
			</g>
		</g>
	</g>
	
	


</g>
</svg>
